<svg width="150" height="157" viewBox="0 0 150 157" fill="none" xmlns="http://www.w3.org/2000/svg">
<path d="M133.394 129.433C111.234 158.953 63.9166 148.99 33.5714 150.417C33.5714 150.417 28.1953 150.723 22.7922 151.611C22.7922 151.611 24.8385 150.74 27.4503 149.834C48.7575 142.465 58.8276 140.984 71.7789 134.334C96.1017 121.876 120.317 94.7262 125.244 66.5261C115.982 93.6492 87.8176 116.994 62.1754 126.471C44.6289 132.952 12.8836 139.252 12.8746 139.252C12.4433 139.031 12.0154 138.804 11.5911 138.57C-9.99425 128.069 -10.6225 81.3082 28.5902 66.2389C45.7867 59.6331 62.2203 63.2591 80.8079 58.8343C100.625 54.1223 123.584 39.2684 132.909 19.846C143.365 50.8823 155.93 99.4202 133.394 129.433ZM133.771 10.2425C131.264 16.2537 128.055 21.9475 124.212 27.2057C115.858 18.5953 105.859 11.7505 94.8094 7.07749C83.7597 2.40445 71.884 -0.0016841 59.8867 0.00183491C10.3167 0.00183491 -30 40.3185 -30 89.8796C-30.0058 102.242 -27.4531 114.472 -22.5026 125.801C-17.5521 137.129 -10.3109 147.31 -1.23445 155.704L0.740101 157.445C-0.69912 156.003 -1.50691 154.049 -1.50565 152.012C-1.50439 149.975 -0.694178 148.022 0.746828 146.582C2.18784 145.142 4.14167 144.334 6.17871 144.334C8.21576 144.335 10.1693 145.144 11.6097 146.584C13.0501 148.025 13.8595 149.978 13.8599 152.015C13.8603 154.052 13.0517 156.006 11.6119 157.447C10.1721 158.888 8.21894 159.698 6.18188 159.7C4.14484 159.701 2.19068 158.893 0.749075 157.454L2.08638 158.639C18.2454 172.3 38.7266 179.787 59.8867 179.766C107.258 179.766 146.165 142.896 149.495 96.3686C151.954 73.5806 145.223 44.6445 133.771 10.2425Z" fill="white"/>
</svg>
