<svg width="156" height="155" viewBox="0 0 156 155" fill="none" xmlns="http://www.w3.org/2000/svg">
<path d="M200 89.0753C200 75.8263 183.408 63.2702 157.969 55.4838C163.84 29.5564 161.231 8.92858 149.735 2.32442C147.085 0.775293 143.986 0.0414982 140.603 0.0414982V9.13241C142.478 9.13241 143.986 9.49931 145.25 10.1923C150.794 13.3721 153.2 25.4797 151.324 41.0525C150.876 44.8846 150.142 48.9204 149.245 53.0378C141.255 51.081 132.531 49.5727 123.359 48.5943C117.855 41.0525 112.148 34.2038 106.4 28.2111C119.69 15.8589 132.164 9.09164 140.644 9.09164V0.000732422C129.433 0.000732422 114.757 7.99095 99.918 21.8515C85.079 8.07248 70.4031 0.163799 59.1923 0.163799V9.25471C67.631 9.25471 80.1463 15.9812 93.4361 28.2519C87.7288 34.2445 82.0215 41.0525 76.5996 48.5943C67.3864 49.5727 58.6624 51.081 50.6722 53.0786C49.7345 49.002 49.0415 45.0476 48.5523 41.2563C46.6363 25.6836 49.0007 13.5759 54.5042 10.3554C55.7272 9.62161 57.3171 9.29548 59.1923 9.29548V0.204564C55.768 0.204564 52.6697 0.938359 49.9791 2.48748C38.5238 9.09164 35.9555 29.6787 41.8666 55.5246C16.5099 63.3517 -0.000488281 75.867 -0.000488281 89.0753C-0.000488281 102.324 16.5914 114.88 42.0297 122.667C36.1593 148.594 38.7684 169.222 50.2645 175.826C52.9143 177.375 56.0126 178.109 59.4369 178.109C70.6477 178.109 85.3236 170.119 100.163 156.258C115.002 170.037 129.677 177.946 140.888 177.946C144.313 177.946 147.411 177.212 150.101 175.663C161.557 169.059 164.125 148.472 158.214 122.626C183.489 114.84 200 102.284 200 89.0753ZM146.922 61.8841C145.413 67.143 143.538 72.5649 141.418 77.9869C139.747 74.7256 137.994 71.4643 136.078 68.2029C134.203 64.9416 132.205 61.7618 130.207 58.6636C135.996 59.5197 141.581 60.5796 146.922 61.8841ZM128.251 105.3C125.071 110.804 121.81 116.022 118.426 120.873C112.352 121.403 106.196 121.688 99.9995 121.688C93.8438 121.688 87.6881 121.403 81.6546 120.914C78.271 116.063 74.9689 110.885 71.7892 105.423C68.6909 100.082 65.878 94.6603 63.3097 89.1976C65.8373 83.7349 68.6909 78.2722 71.7484 72.9318C74.9282 67.4284 78.1895 62.2103 81.5731 57.3591C87.6473 56.8291 93.803 56.5437 99.9995 56.5437C106.155 56.5437 112.311 56.8291 118.344 57.3183C121.728 62.1695 125.03 67.3468 128.21 72.8095C131.308 78.1499 134.121 83.5719 136.689 89.0346C134.121 94.4973 131.308 99.96 128.251 105.3ZM141.418 100.001C143.62 105.463 145.495 110.926 147.044 116.226C141.704 117.53 136.078 118.631 130.248 119.487C132.246 116.348 134.243 113.128 136.119 109.825C137.994 106.564 139.747 103.262 141.418 100.001ZM100.081 143.499C96.2898 139.585 92.4985 135.223 88.748 130.453C92.417 130.616 96.1675 130.739 99.9587 130.739C103.791 130.739 107.582 130.657 111.292 130.453C107.623 135.223 103.832 139.585 100.081 143.499ZM69.7508 119.487C63.962 118.631 58.377 117.571 53.0366 116.267C54.545 111.008 56.4202 105.586 58.5401 100.164C60.2115 103.425 61.9645 106.686 63.8805 109.948C65.7965 113.209 67.7533 116.389 69.7508 119.487ZM99.8772 34.6522C103.668 38.5658 107.46 42.9278 111.21 47.6974C107.541 47.5344 103.791 47.4121 99.9995 47.4121C96.1675 47.4121 92.3762 47.4936 88.6665 47.6974C92.3354 42.9278 96.1267 38.5658 99.8772 34.6522ZM69.7101 58.6636C67.7125 61.8026 65.715 65.0232 63.8397 68.3252C61.9644 71.5866 60.2115 74.8479 58.5401 78.1092C56.3387 72.6465 54.4634 67.1838 52.9143 61.8841C58.2547 60.6204 63.8805 59.5197 69.7101 58.6636ZM32.8165 109.703C18.3852 103.547 9.04965 95.4757 9.04965 89.0753C9.04965 82.675 18.3852 74.5625 32.8165 68.4475C36.3224 66.9392 40.1544 65.5939 44.1088 64.3301C46.4325 72.3203 49.4899 80.6367 53.2812 89.1569C49.5307 97.6363 46.514 105.912 44.2311 113.861C40.1952 112.598 36.3632 111.212 32.8165 109.703ZM54.7488 167.958C49.2046 164.779 46.7994 152.671 48.6746 137.098C49.123 133.266 49.8568 129.23 50.7537 125.113C58.7439 127.07 67.4679 128.578 76.6404 129.556C82.1438 137.098 87.8511 143.947 93.5992 149.94C80.3093 162.292 67.8348 169.059 59.3554 169.059C57.5209 169.018 55.9718 168.651 54.7488 167.958ZM151.447 136.894C153.363 152.467 150.998 164.575 145.495 167.795C144.272 168.529 142.682 168.855 140.807 168.855C132.368 168.855 119.853 162.129 106.563 149.858C112.27 143.865 117.978 137.057 123.399 129.516C132.613 128.537 141.337 127.029 149.327 125.031C150.264 129.149 150.998 133.103 151.447 136.894ZM167.142 109.703C163.636 111.212 159.804 112.557 155.849 113.821C153.526 105.83 150.468 97.514 146.677 88.9938C150.428 80.5144 153.444 72.2388 155.727 64.2894C159.763 65.5531 163.595 66.9392 167.183 68.4475C181.614 74.6033 190.949 82.675 190.949 89.0753C190.909 95.4757 181.573 103.588 167.142 109.703Z" fill="white"/>
<path d="M99.9589 107.706C110.248 107.706 118.589 99.3645 118.589 89.0753C118.589 78.7861 110.248 70.4451 99.9589 70.4451C89.6697 70.4451 81.3286 78.7861 81.3286 89.0753C81.3286 99.3645 89.6697 107.706 99.9589 107.706Z" fill="white"/>
</svg>
