<svg width="177" height="107" viewBox="0 0 177 107" fill="none" xmlns="http://www.w3.org/2000/svg">
<path d="M138.798 79.9851C137.228 79.9851 135.693 79.5194 134.387 78.6468C133.081 77.7743 132.063 76.5341 131.462 75.0831C130.861 73.6321 130.704 72.0355 131.01 70.4951C131.317 68.9548 132.073 67.5399 133.183 66.4293C134.294 65.3188 135.709 64.5625 137.249 64.2561C138.79 63.9497 140.386 64.107 141.837 64.708C143.288 65.309 144.528 66.3268 145.401 67.6326C146.274 68.9385 146.739 70.4738 146.739 72.0443C146.739 74.1503 145.903 76.1701 144.413 77.6593C142.924 79.1485 140.904 79.9851 138.798 79.9851ZM51.367 79.9851C49.7964 79.9851 48.2612 79.5194 46.9553 78.6468C45.6494 77.7743 44.6317 76.5341 44.0306 75.0831C43.4296 73.6321 43.2724 72.0355 43.5788 70.4951C43.8852 68.9548 44.6415 67.5399 45.752 66.4293C46.8626 65.3188 48.2775 64.5625 49.8178 64.2561C51.3582 63.9497 52.9548 64.107 54.4058 64.708C55.8568 65.309 57.097 66.3268 57.9695 67.6326C58.8421 68.9385 59.3078 70.4738 59.3078 72.0443C59.3078 74.1503 58.4712 76.1701 56.982 77.6593C55.4928 79.1485 53.473 79.9851 51.367 79.9851ZM141.611 32.3403L157.492 4.96114C157.707 4.58625 157.845 4.17272 157.899 3.74429C157.953 3.31586 157.922 2.88099 157.807 2.46464C157.692 2.0483 157.497 1.6587 157.231 1.31821C156.966 0.977721 156.635 0.693061 156.259 0.480582C155.884 0.268103 155.469 0.131991 155.041 0.0800654C154.612 0.0281399 154.177 0.0614241 153.762 0.178006C153.346 0.294587 152.957 0.492168 152.618 0.7594C152.279 1.02663 151.996 1.35825 151.785 1.7352L135.738 29.4453C122.993 23.6212 109.137 20.6298 95.1241 20.6773C81.095 20.643 67.2203 23.604 54.4275 29.3625L38.3805 1.65248C37.9504 0.900089 37.2399 0.348629 36.4043 0.118702C35.5687 -0.111226 34.676 -0.000907064 33.9216 0.425531C33.1671 0.851968 32.6122 1.55982 32.3783 2.39428C32.1443 3.22874 32.2503 4.1219 32.6731 4.87843L48.4719 32.2576C34.8116 39.7078 23.2251 50.4473 14.7615 63.5039C6.29778 76.5605 1.2242 91.5218 0 107.033H190C188.813 91.5328 183.763 76.5762 175.311 63.5289C166.858 50.4817 155.272 39.7592 141.611 32.3403Z" fill="white"/>
</svg>
