<svg width="135" height="182" viewBox="0 0 135 182" fill="none" xmlns="http://www.w3.org/2000/svg">
<path d="M129.636 68.1868C128.476 69.0869 107.994 80.6281 107.994 106.291C107.994 135.974 134.056 146.475 134.836 146.735C134.716 147.375 130.696 161.116 121.095 175.118C112.534 187.439 103.593 199.74 89.9918 199.74C76.3904 199.74 72.8901 191.839 57.1885 191.839C41.887 191.839 36.4464 200 24.0052 200C11.564 200 2.88309 188.599 -7.09791 174.597C-18.6591 158.156 -28 132.613 -28 108.371C-28 69.4869 -2.71747 48.8649 22.165 48.8649C35.3863 48.8649 46.4074 57.5458 54.7083 57.5458C62.6091 57.5458 74.9303 48.3448 89.9718 48.3448C95.6724 48.3448 116.154 48.8649 129.636 68.1868ZM82.8311 31.8832C89.0517 24.5024 93.4521 14.2614 93.4521 4.0204C93.4521 2.60026 93.3321 1.16012 93.0721 0C82.9511 0.380038 70.9099 6.74067 63.6492 15.1615C57.9486 21.6422 52.6281 31.8832 52.6281 42.2642C52.6281 43.8244 52.8881 45.3845 53.0081 45.8846C53.6482 46.0046 54.6883 46.1446 55.7284 46.1446C64.8093 46.1446 76.2304 40.064 82.8311 31.8832Z" fill="white"/>
</svg>
