<svg width="538" height="340" viewBox="0 0 538 340" fill="none" xmlns="http://www.w3.org/2000/svg">
<g clip-path="url(#clip0_1039_1787)">
<path d="M241.442 0.196106H0.147461V126.893H241.442V0.196106Z" fill="#F2F2F2"/>
<path d="M241.294 0H0V14.6874H241.294V0Z" fill="#E6E6E6"/>
<path d="M236.925 20.6429H5.604V120.214H236.925V20.6429Z" fill="white"/>
<path d="M22.8658 9.73613C24.2078 9.73613 25.2956 8.64827 25.2956 7.30634C25.2956 5.96441 24.2078 4.87656 22.8658 4.87656C21.5239 4.87656 20.436 5.96441 20.436 7.30634C20.436 8.64827 21.5239 9.73613 22.8658 9.73613Z" fill="white"/>
<path d="M32.088 9.73613C33.4299 9.73613 34.5178 8.64827 34.5178 7.30634C34.5178 5.96441 33.4299 4.87656 32.088 4.87656C30.7461 4.87656 29.6582 5.96441 29.6582 7.30634C29.6582 8.64827 30.7461 9.73613 32.088 9.73613Z" fill="white"/>
<path d="M13.6188 9.73613C14.9607 9.73613 16.0485 8.64827 16.0485 7.30634C16.0485 5.96441 14.9607 4.87656 13.6188 4.87656C12.2768 4.87656 11.189 5.96441 11.189 7.30634C11.189 8.64827 12.2768 9.73613 13.6188 9.73613Z" fill="white"/>
<path d="M190.493 49.8221H57.4756V55.7503H190.493V49.8221Z" fill="#F2F2F2"/>
<path d="M104.903 64.6425H57.4756V70.5707H104.903V64.6425Z" fill="#F2F2F2"/>
<path d="M151.959 79.4635H57.4756V85.3916H151.959V79.4635Z" fill="#F2F2F2"/>
<path d="M281.854 166.128H54.7817V285.357H281.854V166.128Z" fill="#F2F2F2"/>
<path d="M281.716 165.943H54.6431V179.765H281.716V165.943Z" fill="#E6E6E6"/>
<path d="M277.604 184.571H59.5698V279.286H277.604V184.571Z" fill="white"/>
<path d="M76.1605 175.105C77.4233 175.105 78.447 174.082 78.447 172.819C78.447 171.556 77.4233 170.532 76.1605 170.532C74.8977 170.532 73.874 171.556 73.874 172.819C73.874 174.082 74.8977 175.105 76.1605 175.105Z" fill="white"/>
<path d="M84.8397 175.105C86.1025 175.105 87.1262 174.082 87.1262 172.819C87.1262 171.556 86.1025 170.532 84.8397 170.532C83.5769 170.532 82.5532 171.556 82.5532 172.819C82.5532 174.082 83.5769 175.105 84.8397 175.105Z" fill="white"/>
<path d="M67.4589 175.105C68.7217 175.105 69.7454 174.082 69.7454 172.819C69.7454 171.556 68.7217 170.532 67.4589 170.532C66.1961 170.532 65.1724 171.556 65.1724 172.819C65.1724 174.082 66.1961 175.105 67.4589 175.105Z" fill="white"/>
<path d="M433.441 52.2519H164.093V193.679H433.441V52.2519Z" fill="#E6E6E6"/>
<path d="M433.276 52.0334H163.929V68.4286H433.276V52.0334Z" fill="#0FEDA3"/>
<path d="M426.961 73.4643H170.14V185.786H426.961V73.4643Z" fill="white"/>
<path d="M189.452 62.9012C190.95 62.9012 192.164 61.687 192.164 60.1891C192.164 58.6912 190.95 57.477 189.452 57.477C187.954 57.477 186.74 58.6912 186.74 60.1891C186.74 61.687 187.954 62.9012 189.452 62.9012Z" fill="white"/>
<path d="M199.747 62.9012C201.245 62.9012 202.459 61.687 202.459 60.1891C202.459 58.6912 201.245 57.477 199.747 57.477C198.249 57.477 197.035 58.6912 197.035 60.1891C197.035 61.687 198.249 62.9012 199.747 62.9012Z" fill="white"/>
<path d="M179.131 62.9012C180.629 62.9012 181.843 61.687 181.843 60.1891C181.843 58.6912 180.629 57.477 179.131 57.477C177.633 57.477 176.419 58.6912 176.419 60.1891C176.419 61.687 177.633 62.9012 179.131 62.9012Z" fill="white"/>
<path d="M397.142 102.386H200.227V111.162H397.142V102.386Z" fill="#E6E6E6"/>
<path d="M270.436 124.326H200.227V133.103H270.436V124.326Z" fill="#E6E6E6"/>
<path d="M340.097 146.267H200.227V155.043H340.097V146.267Z" fill="#E6E6E6"/>
<path d="M247.854 212.683H99.3721V219.301H247.854V212.683Z" fill="#F2F2F2"/>
<path d="M152.312 229.227H99.3721V235.845H152.312V229.227Z" fill="#F2F2F2"/>
<path d="M204.84 245.771H99.3721V252.389H204.84V245.771Z" fill="#F2F2F2"/>
<path d="M304.994 54.1663L292.334 61.1794L305.835 56.4182L304.994 54.1663Z" fill="white"/>
<path d="M310.7 61.0686C312.555 60.466 313.075 56.9476 311.861 53.2099C310.647 49.4722 308.159 46.9307 306.304 47.5332C304.449 48.1358 303.929 51.6542 305.143 55.3919C306.357 59.1296 308.845 61.6711 310.7 61.0686Z" fill="#3F3D56"/>
<path d="M309.315 50.1907L317.712 47.1598L319.497 52.1032L311.37 57.5924L309.315 50.1907Z" fill="#3F3D56"/>
<path d="M315.621 52.6174C315.952 53.7666 316.53 54.8293 317.315 55.7307C318.101 56.6322 319.075 57.3504 320.168 57.8349C321.261 58.3193 322.447 58.5582 323.642 58.5346C324.838 58.5111 326.013 58.2257 327.087 57.6986L347.742 78.1442L350.702 63.3347L330.635 46.1896C329.63 44.4455 328.02 43.1305 326.111 42.4939C324.201 41.8573 322.124 41.9433 320.274 42.7356C318.423 43.5279 316.928 44.9715 316.07 46.7928C315.213 48.6141 315.054 50.6865 315.623 52.6174H315.621Z" fill="#A0616A"/>
<path d="M473.027 181.613C473.815 180.714 474.397 179.654 474.731 178.506C475.064 177.357 475.142 176.15 474.959 174.969C474.776 173.787 474.336 172.66 473.67 171.667C473.004 170.674 472.129 169.839 471.105 169.221L477.144 140.792L463.084 146.305L459.505 172.456C458.58 174.244 458.344 176.309 458.84 178.26C459.337 180.211 460.531 181.912 462.198 183.04C463.865 184.169 465.888 184.647 467.883 184.384C469.879 184.121 471.709 183.135 473.026 181.613L473.027 181.613Z" fill="#A0616A"/>
<path d="M404.983 329.773H395.012L390.269 291.314H404.984L404.983 329.773Z" fill="#A0616A"/>
<path d="M407.526 339.439H375.376V339.032C375.376 337.389 375.699 335.762 376.328 334.243C376.957 332.725 377.878 331.345 379.04 330.183C380.202 329.021 381.582 328.099 383.1 327.47C384.618 326.841 386.245 326.517 387.889 326.517H407.525L407.526 339.439Z" fill="#2F2E41"/>
<path d="M453.779 329.773H443.81L439.066 291.314H453.782L453.779 329.773Z" fill="#A0616A"/>
<path d="M456.324 339.439H424.174V339.032C424.174 337.389 424.497 335.762 425.126 334.243C425.755 332.725 426.677 331.346 427.839 330.184C429.001 329.022 430.381 328.1 431.899 327.471C433.417 326.842 435.044 326.519 436.688 326.519H456.324L456.324 339.439Z" fill="#2F2E41"/>
<path d="M406.022 309.691L391.908 309.127C390.945 309.085 390.037 308.667 389.38 307.962C388.723 307.257 388.37 306.322 388.396 305.358L392.372 174.923L392.632 174.829C417.369 165.881 437.834 166.558 455.196 176.894L455.39 177.009L457.772 304.048C457.781 304.534 457.693 305.018 457.513 305.47C457.334 305.922 457.066 306.334 456.725 306.681C456.384 307.028 455.978 307.304 455.529 307.492C455.081 307.68 454.599 307.777 454.112 307.777H442.212C441.365 307.776 440.544 307.481 439.889 306.942C439.234 306.404 438.786 305.655 438.621 304.823L422.41 222.348C422.355 222.063 422.199 221.807 421.971 221.627C421.744 221.446 421.459 221.353 421.169 221.364C420.878 221.374 420.601 221.488 420.388 221.685C420.174 221.882 420.037 222.148 420.003 222.437L409.801 306.475C409.689 307.361 409.258 308.177 408.59 308.769C407.921 309.361 407.06 309.689 406.166 309.693C406.118 309.694 406.07 309.693 406.022 309.691Z" fill="#2F2E41"/>
<path d="M429.333 58.0891C439.013 52.7974 442.571 40.6602 437.279 30.9799C431.988 21.2997 419.851 17.742 410.17 23.0337C400.49 28.3254 396.932 40.4625 402.224 50.1428C407.516 59.8231 419.653 63.3808 429.333 58.0891Z" fill="#A0616A"/>
<path d="M331.004 60.4296C331.324 59.7567 331.841 59.1974 332.487 58.8261L338.511 55.3654C339.164 54.9921 339.917 54.8285 340.666 54.8968C341.415 54.9652 342.125 55.262 342.7 55.7473L362.716 72.7042L408.721 85.6023C411.542 86.9369 413.72 89.3361 414.775 92.2737C415.831 95.2113 415.678 98.4477 414.351 101.273C413.024 104.098 410.631 106.282 407.696 107.345C404.761 108.409 401.524 108.265 398.695 106.945L369.31 100.327C360.39 98.3207 352.503 93.1424 347.116 85.7559L331.357 64.1544C331.054 63.7388 330.842 63.2642 330.735 62.7614C330.627 62.2586 330.627 61.7388 330.734 61.2358C330.792 60.9574 330.883 60.6868 331.004 60.4296Z" fill="#3F3D56"/>
<path d="M472.174 163.208C471.473 163.461 470.712 163.494 469.992 163.303L463.278 161.518C462.552 161.323 461.904 160.91 461.42 160.334C460.936 159.759 460.64 159.049 460.573 158.3L458.299 132.166L434.712 90.6154C433.638 87.6784 433.775 84.4352 435.092 81.5991C436.41 78.7631 438.8 76.5665 441.737 75.4927C444.674 74.4189 447.917 74.5559 450.753 75.8734C453.589 77.1908 455.786 79.581 456.86 82.518L473.071 107.907C477.992 115.612 479.946 124.842 478.571 133.88L474.553 160.316C474.476 160.824 474.292 161.311 474.014 161.743C473.736 162.176 473.37 162.545 472.941 162.827C472.702 162.984 472.445 163.112 472.176 163.208H472.174Z" fill="#3F3D56"/>
<path d="M397.906 76.0331C401.337 72.2705 405.569 69.3262 410.29 67.4175C415.011 65.5088 420.1 64.6843 425.181 65.0049C425.515 65.0256 425.848 65.0489 426.18 65.0748C430.996 65.4555 435.676 66.8603 439.906 69.1952C444.136 71.5302 447.819 74.7413 450.708 78.6141C453.646 82.5406 455.711 87.0491 456.767 91.838C457.822 96.6269 457.843 101.586 456.828 106.384C452.955 124.719 453.935 143.747 459.672 161.587L465.031 178.226C465.203 178.759 465.25 179.325 465.168 179.879C465.087 180.433 464.88 180.961 464.562 181.423C464.245 181.884 463.825 182.267 463.337 182.54C462.848 182.814 462.303 182.972 461.744 183.002L434.347 184.475L427.337 172.365V184.851L394.04 186.641C393.974 186.645 393.908 186.646 393.842 186.646C393.337 186.646 392.837 186.541 392.374 186.338C391.911 186.135 391.496 185.839 391.153 185.467C390.811 185.096 390.549 184.658 390.384 184.18C390.219 183.702 390.155 183.196 390.195 182.692L393.96 136.024L389.239 104.327C388.476 99.2632 388.858 94.0924 390.358 89.1958C391.858 84.2992 394.438 79.8015 397.907 76.0343L397.906 76.0331Z" fill="#3F3D56"/>
<path d="M433.636 59.6287C431.787 60.693 424.476 61.3985 423.956 59.3294L423.945 59.2839C423.581 57.766 423.884 56.1874 423.987 54.6295C424.091 53.0716 423.939 51.3655 422.88 50.2222C420.905 48.0906 417.392 49.2205 414.537 48.6813C412.864 48.3081 411.385 47.3382 410.376 45.9531C409.367 44.568 408.897 42.8628 409.055 41.1564C409.095 40.8334 409.159 40.5092 409.231 40.185C409.409 39.3654 409.395 38.5157 409.19 37.7024C408.985 36.8892 408.594 36.1345 408.048 35.4977C407.503 34.8609 406.817 34.3593 406.044 34.0322C405.272 33.7051 404.434 33.5615 403.597 33.6126C400.711 33.7778 397.597 34.6521 395.209 32.5143C393.363 30.8617 392.913 26.5589 393.724 24.2177C395.087 20.2828 403.82 18.2228 407.633 17.0905C412.348 15.7279 417.308 15.4334 422.152 16.2282C426.996 17.023 431.602 18.8872 435.635 21.6853C438.043 23.3853 440.292 25.5158 441.319 28.2777C442.345 31.0396 441.85 34.524 439.536 36.3472C441.33 38.2468 442.593 40.5845 443.199 43.1261C443.805 45.6677 443.733 48.324 442.989 50.8288C441.845 54.5129 436.389 58.0429 433.636 59.6287Z" fill="#2F2E41"/>
<path d="M536.438 340H305.116C304.955 340 304.801 339.936 304.687 339.822C304.573 339.708 304.509 339.554 304.509 339.393C304.509 339.232 304.573 339.077 304.687 338.964C304.801 338.85 304.955 338.786 305.116 338.786H536.438C536.599 338.786 536.753 338.85 536.867 338.964C536.981 339.077 537.045 339.232 537.045 339.393C537.045 339.554 536.981 339.708 536.867 339.822C536.753 339.936 536.599 340 536.438 340Z" fill="#3F3D56"/>
</g>
<defs>
<clipPath id="clip0_1039_1787">
<rect width="537.045" height="340" fill="white"/>
</clipPath>
</defs>
</svg>
