<svg width="488" height="370" viewBox="0 0 488 370" fill="none" xmlns="http://www.w3.org/2000/svg">
<path d="M245.185 0H27.7999C20.4295 0.00825635 13.3632 2.93982 8.15152 8.15152C2.93982 13.3632 0.00825635 20.4295 0 27.7999V283.054C0.00825635 290.424 2.93982 297.49 8.15152 302.702C13.3632 307.914 20.4295 310.845 27.7999 310.854H245.185C252.555 310.845 259.621 307.914 264.833 302.702C270.045 297.49 272.976 290.424 272.984 283.054V27.7999C272.976 20.4295 270.045 13.3632 264.833 8.15152C259.621 2.93982 252.555 0.00825635 245.185 0Z" fill="#F2F2F2"/>
<path d="M245.184 8.00537H27.7995C22.5508 8.01133 17.5188 10.099 13.8074 13.8104C10.0961 17.5217 8.0084 22.5537 8.00244 27.8024V283.054C8.00825 288.303 10.0959 293.335 13.8073 297.046C17.5187 300.757 22.5507 302.845 27.7995 302.851H245.184C250.433 302.845 255.465 300.757 259.176 297.046C262.888 293.335 264.975 288.303 264.981 283.054V27.8001C264.975 22.5518 262.887 17.5203 259.175 13.8094C255.464 10.0985 250.432 8.01118 245.184 8.00537Z" fill="white"/>
<path d="M212.469 82.2239H102.54C101.932 82.2239 101.33 82.1042 100.768 81.8716C100.207 81.6389 99.6964 81.2979 99.2665 80.868C98.8367 80.4382 98.4957 79.9278 98.263 79.3662C98.0304 78.8045 97.9106 78.2025 97.9106 77.5946C97.9106 76.9866 98.0304 76.3847 98.263 75.823C98.4957 75.2613 98.8367 74.751 99.2665 74.3211C99.6964 73.8912 100.207 73.5502 100.768 73.3176C101.33 73.0849 101.932 72.9652 102.54 72.9652H212.469C213.697 72.9652 214.874 73.4529 215.742 74.3211C216.61 75.1893 217.098 76.3668 217.098 77.5946C217.098 78.8224 216.61 79.9999 215.742 80.868C214.874 81.7362 213.697 82.2239 212.469 82.2239Z" fill="#F2F2F2"/>
<path d="M231.565 97.8485H102.539C101.311 97.8485 100.134 97.3607 99.2656 96.4926C98.3974 95.6244 97.9097 94.4469 97.9097 93.2191C97.9097 91.9913 98.3974 90.8138 99.2656 89.9456C100.134 89.0774 101.311 88.5897 102.539 88.5897H231.565C232.793 88.5897 233.971 89.0774 234.839 89.9456C235.707 90.8138 236.195 91.9913 236.195 93.2191C236.195 94.4469 235.707 95.6244 234.839 96.4926C233.971 97.3607 232.793 97.8485 231.565 97.8485Z" fill="#F2F2F2"/>
<path d="M212.469 152.247H102.54C101.312 152.247 100.135 151.76 99.2665 150.892C98.3984 150.023 97.9106 148.846 97.9106 147.618C97.9106 146.39 98.3984 145.213 99.2665 144.345C100.135 143.476 101.312 142.989 102.54 142.989H212.469C213.697 142.989 214.874 143.476 215.742 144.345C216.61 145.213 217.098 146.39 217.098 147.618C217.098 148.846 216.61 150.023 215.742 150.892C214.874 151.76 213.697 152.247 212.469 152.247Z" fill="#F2F2F2"/>
<path d="M231.565 167.869H102.539C101.311 167.869 100.134 167.381 99.2656 166.513C98.3974 165.645 97.9097 164.467 97.9097 163.239C97.9097 162.012 98.3974 160.834 99.2656 159.966C100.134 159.098 101.311 158.61 102.539 158.61H231.565C232.793 158.61 233.971 159.098 234.839 159.966C235.707 160.834 236.195 162.012 236.195 163.239C236.195 164.467 235.707 165.645 234.839 166.513C233.971 167.381 232.793 167.869 231.565 167.869Z" fill="#F2F2F2"/>
<path d="M212.469 222.264H102.54C101.312 222.264 100.135 221.776 99.2665 220.908C98.3984 220.04 97.9106 218.862 97.9106 217.634C97.9106 216.407 98.3984 215.229 99.2665 214.361C100.135 213.493 101.312 213.005 102.54 213.005H212.469C213.697 213.005 214.874 213.493 215.742 214.361C216.61 215.229 217.098 216.407 217.098 217.634C217.098 218.862 216.61 220.04 215.742 220.908C214.874 221.776 213.697 222.264 212.469 222.264Z" fill="#F2F2F2"/>
<path d="M231.565 237.889H102.539C101.931 237.889 101.329 237.77 100.767 237.537C100.206 237.304 99.6955 236.963 99.2656 236.533C98.8357 236.103 98.4947 235.593 98.2621 235.032C98.0294 234.47 97.9097 233.868 97.9097 233.26C97.9097 232.652 98.0294 232.05 98.2621 231.488C98.4947 230.927 98.8357 230.416 99.2656 229.986C99.6955 229.557 100.206 229.216 100.767 228.983C101.329 228.75 101.931 228.631 102.539 228.631H231.565C232.793 228.631 233.971 229.118 234.839 229.986C235.707 230.855 236.195 232.032 236.195 233.26C236.195 234.488 235.707 235.665 234.839 236.533C233.971 237.402 232.793 237.889 231.565 237.889Z" fill="#F2F2F2"/>
<path d="M78.1225 104.847H39.22C38.6314 104.847 38.0671 104.613 37.6509 104.196C37.2347 103.78 37.0006 103.216 37 102.627V67.9978C37.0006 67.4092 37.2347 66.8449 37.6509 66.4287C38.0671 66.0125 38.6314 65.7784 39.22 65.7778H78.1231C78.7117 65.7784 79.276 66.0125 79.6921 66.4287C80.1083 66.8449 80.3424 67.4092 80.343 67.9978V102.627C80.3426 103.216 80.1085 103.78 79.6921 104.196C79.2758 104.613 78.7113 104.847 78.1225 104.847Z" fill="#E6E6E6"/>
<path d="M77.913 174.961H39.0105C38.4219 174.961 37.8576 174.727 37.4414 174.311C37.0252 173.894 36.7911 173.33 36.7905 172.742V138.113C36.7911 137.524 37.0252 136.96 37.4414 136.543C37.8576 136.127 38.4219 135.893 39.0105 135.893H77.9136C78.5022 135.893 79.0665 136.127 79.4827 136.543C79.8989 136.96 80.1329 137.524 80.1336 138.113V172.742C80.1329 173.33 79.8988 173.895 79.4825 174.311C79.0662 174.727 78.5017 174.961 77.913 174.961Z" fill="#E6E6E6"/>
<path d="M77.913 244.982H39.0105C38.4219 244.981 37.8576 244.747 37.4414 244.331C37.0252 243.915 36.7911 243.351 36.7905 242.762V208.133C36.7911 207.544 37.0252 206.98 37.4414 206.564C37.8576 206.148 38.4219 205.914 39.0105 205.913H77.9136C78.5022 205.914 79.0665 206.148 79.4827 206.564C79.8989 206.98 80.1329 207.544 80.1336 208.133V242.763C80.1328 243.351 79.8986 243.915 79.4823 244.331C79.066 244.748 78.5016 244.981 77.913 244.982Z" fill="#E6E6E6"/>
<path d="M436.686 241.411L438.41 226.329L447.057 150.708L448.781 135.626C449.61 128.303 447.501 120.949 442.915 115.179C438.329 109.409 431.641 105.693 424.32 104.848L228.113 82.4121C220.789 81.583 213.435 83.6927 207.665 88.2786C201.895 92.8645 198.18 99.5519 197.334 106.874L197.33 106.912L185.241 212.619L185.236 212.658C184.407 219.982 186.517 227.335 191.103 233.105C195.689 238.875 202.376 242.591 209.698 243.436L405.907 265.874C413.231 266.703 420.585 264.593 426.355 260.007C432.125 255.421 435.84 248.734 436.686 241.412V241.411Z" fill="#E6E6E6"/>
<path d="M428.734 240.501L430.776 222.638L438.785 152.58L440.828 134.717C441.418 129.502 439.916 124.265 436.65 120.156C433.384 116.047 428.622 113.401 423.408 112.799L227.198 90.3626C221.983 89.7721 216.746 91.2746 212.637 94.5404C208.528 97.8061 205.882 102.568 205.28 107.782L205.276 107.821L193.188 213.527L193.183 213.567C192.593 218.783 194.096 224.02 197.363 228.129C200.63 232.238 205.394 234.884 210.609 235.484L406.818 257.921C412.033 258.51 417.269 257.008 421.378 253.742C425.486 250.476 428.132 245.715 428.734 240.501Z" fill="white"/>
<path d="M396.616 144.656L287.398 132.167C286.183 132.022 285.075 131.401 284.316 130.441C283.557 129.481 283.209 128.26 283.348 127.044C283.487 125.829 284.102 124.718 285.058 123.954C286.014 123.19 287.233 122.836 288.45 122.968L397.668 135.457C398.274 135.523 398.862 135.709 399.396 136.003C399.931 136.296 400.402 136.693 400.783 137.17C401.163 137.646 401.446 138.193 401.615 138.779C401.784 139.366 401.835 139.979 401.765 140.585C401.696 141.191 401.508 141.778 401.211 142.311C400.914 142.844 400.515 143.313 400.037 143.691C399.558 144.069 399.01 144.349 398.423 144.515C397.836 144.68 397.222 144.728 396.616 144.656Z" fill="#E6E6E6"/>
<path d="M413.815 162.347L285.624 147.689C284.409 147.544 283.301 146.923 282.543 145.963C281.784 145.003 281.436 143.782 281.575 142.566C281.714 141.351 282.329 140.24 283.285 139.476C284.24 138.712 285.46 138.358 286.676 138.49L414.87 153.148C415.476 153.215 416.063 153.4 416.598 153.694C417.132 153.988 417.604 154.384 417.984 154.861C418.365 155.337 418.648 155.884 418.816 156.471C418.985 157.057 419.036 157.67 418.967 158.277C418.898 158.883 418.709 159.469 418.413 160.002C418.116 160.535 417.717 161.004 417.238 161.382C416.76 161.76 416.211 162.04 415.624 162.206C415.037 162.372 414.423 162.42 413.818 162.347H413.815Z" fill="#E6E6E6"/>
<path d="M410.242 193.309L221.248 171.698C220.642 171.632 220.055 171.446 219.52 171.152C218.986 170.859 218.515 170.462 218.134 169.985C217.753 169.509 217.47 168.962 217.302 168.376C217.133 167.789 217.082 167.176 217.151 166.57C217.22 165.964 217.409 165.377 217.705 164.844C218.002 164.311 218.401 163.842 218.88 163.464C219.358 163.086 219.907 162.806 220.494 162.64C221.081 162.475 221.695 162.427 222.3 162.499L411.294 184.11C411.9 184.176 412.487 184.361 413.022 184.655C413.556 184.949 414.027 185.346 414.408 185.822C414.789 186.299 415.072 186.846 415.24 187.432C415.409 188.018 415.46 188.632 415.391 189.238C415.322 189.844 415.133 190.43 414.837 190.963C414.54 191.496 414.141 191.965 413.662 192.344C413.184 192.722 412.635 193.002 412.048 193.168C411.461 193.333 410.847 193.381 410.242 193.309V193.309Z" fill="#E6E6E6"/>
<path d="M409.074 208.901L219.473 187.221C218.253 187.081 217.139 186.463 216.375 185.502C215.611 184.54 215.26 183.315 215.4 182.095C215.539 180.875 216.157 179.761 217.119 178.997C218.08 178.233 219.305 177.882 220.525 178.021L410.126 199.702C411.34 199.847 412.448 200.468 413.207 201.428C413.966 202.388 414.314 203.609 414.175 204.825C414.036 206.04 413.421 207.152 412.465 207.915C411.509 208.679 410.29 209.033 409.074 208.901Z" fill="#E6E6E6"/>
<path d="M406.763 223.725L217.772 202.115C217.166 202.048 216.579 201.863 216.044 201.569C215.51 201.275 215.038 200.879 214.658 200.402C214.277 199.926 213.994 199.379 213.825 198.792C213.657 198.206 213.606 197.593 213.675 196.987C213.744 196.38 213.933 195.794 214.229 195.261C214.526 194.728 214.925 194.259 215.404 193.881C215.882 193.503 216.431 193.223 217.018 193.057C217.605 192.891 218.219 192.843 218.824 192.916L407.817 214.527C408.423 214.593 409.011 214.778 409.545 215.072C410.08 215.366 410.551 215.763 410.932 216.239C411.312 216.716 411.595 217.263 411.764 217.849C411.932 218.435 411.984 219.049 411.914 219.655C411.845 220.261 411.657 220.847 411.36 221.38C411.063 221.913 410.664 222.382 410.186 222.76C409.707 223.139 409.159 223.419 408.572 223.584C407.985 223.75 407.371 223.798 406.765 223.725H406.763Z" fill="#E6E6E6"/>
<path d="M405.596 239.319L215.996 217.638C214.781 217.493 213.673 216.872 212.914 215.913C212.155 214.953 211.807 213.731 211.946 212.516C212.085 211.3 212.7 210.189 213.656 209.425C214.612 208.661 215.831 208.307 217.047 208.44L406.648 230.12C407.863 230.265 408.971 230.886 409.73 231.845C410.488 232.805 410.836 234.027 410.697 235.242C410.558 236.458 409.944 237.569 408.988 238.333C408.032 239.097 406.812 239.451 405.596 239.318V239.319Z" fill="#E6E6E6"/>
<path d="M260.354 151.939L221.701 147.519C221.116 147.451 220.582 147.155 220.216 146.694C219.85 146.233 219.681 145.646 219.747 145.062L223.681 110.657C223.749 110.072 224.046 109.538 224.506 109.172C224.967 108.806 225.554 108.638 226.139 108.704L264.79 113.123C265.375 113.191 265.908 113.488 266.275 113.948C266.641 114.409 266.809 114.996 266.743 115.581L262.809 149.986C262.741 150.57 262.445 151.103 261.985 151.469C261.524 151.835 260.938 152.004 260.354 151.939Z" fill="#0FEDA3"/>
<path d="M486.725 369.91H360.217C360.064 369.91 359.917 369.849 359.809 369.741C359.701 369.633 359.64 369.486 359.64 369.332C359.64 369.179 359.701 369.032 359.809 368.924C359.917 368.816 360.064 368.755 360.217 368.755H486.725C486.878 368.755 487.025 368.816 487.133 368.924C487.242 369.032 487.303 369.179 487.303 369.332C487.303 369.486 487.242 369.633 487.133 369.741C487.025 369.849 486.878 369.91 486.725 369.91Z" fill="#3F3D56"/>
<path d="M439.222 149.22C439.027 149.988 439.003 150.789 439.152 151.567C439.3 152.344 439.618 153.08 440.081 153.722C440.545 154.364 441.144 154.897 441.835 155.282C442.527 155.668 443.295 155.897 444.085 155.953L447.999 167.697L455.715 167.061L449.955 150.555C449.962 149.222 449.48 147.932 448.6 146.931C447.72 145.929 446.503 145.285 445.18 145.121C443.857 144.957 442.519 145.283 441.421 146.039C440.323 146.795 439.54 147.928 439.221 149.222L439.222 149.22Z" fill="#A0616A"/>
<path d="M445.131 226.122C446.036 226.953 447.143 227.53 448.342 227.796C449.541 228.061 450.788 228.006 451.959 227.636C453.129 227.265 454.182 226.593 455.009 225.686C455.837 224.778 456.41 223.669 456.672 222.47L462.784 194.469C463.829 189.681 463.583 184.701 462.071 180.039L454.919 157.986C454.816 157.669 454.646 157.378 454.421 157.133C454.195 156.888 453.919 156.695 453.612 156.566C453.305 156.437 452.973 156.377 452.641 156.388C452.308 156.4 451.981 156.483 451.684 156.633L447.016 158.97C446.532 159.212 446.149 159.616 445.933 160.111C445.716 160.607 445.68 161.162 445.831 161.681L446.302 163.299C450.216 176.758 450.421 191.025 446.897 204.592L443.095 219.224C442.776 220.45 442.797 221.74 443.156 222.955C443.514 224.17 444.196 225.264 445.129 226.121L445.131 226.122Z" fill="#0FEDA3"/>
<path d="M420.677 363.869H414.073L410.933 338.394H420.679L420.677 363.869Z" fill="#A0616A"/>
<path d="M409.355 361.981H422.091V370H401.336C401.336 367.873 402.181 365.833 403.685 364.33C405.189 362.826 407.228 361.981 409.355 361.981Z" fill="#2F2E41"/>
<path d="M456.273 363.869H449.67L446.529 338.394H456.276L456.273 363.869Z" fill="#A0616A"/>
<path d="M444.952 361.981H457.688V370H436.933C436.933 367.873 437.778 365.833 439.282 364.33C440.786 362.826 442.825 361.981 444.952 361.981Z" fill="#2F2E41"/>
<path d="M436.933 182.786C444.768 182.786 451.12 176.434 451.12 168.599C451.12 160.763 444.768 154.411 436.933 154.411C429.097 154.411 422.745 160.763 422.745 168.599C422.745 176.434 429.097 182.786 436.933 182.786Z" fill="#A0616A"/>
<path d="M388.42 261.127C388.519 260.341 388.789 259.586 389.211 258.916C389.633 258.246 390.196 257.677 390.862 257.248C391.528 256.819 392.28 256.542 393.064 256.435C393.849 256.328 394.647 256.395 395.404 256.63L403.335 247.128L410.286 250.536L398.9 263.802C398.42 265.045 397.501 266.07 396.316 266.681C395.131 267.292 393.763 267.448 392.472 267.118C391.18 266.788 390.054 265.996 389.308 264.891C388.561 263.787 388.245 262.447 388.42 261.125V261.127Z" fill="#A0616A"/>
<path d="M440.388 182.786C442.523 182.832 444.644 182.426 446.611 181.594C448.578 180.762 450.347 179.523 451.802 177.959C453.256 176.395 454.363 174.54 455.05 172.518C455.736 170.495 455.987 168.35 455.785 166.224C455.584 164.098 454.935 162.038 453.881 160.18C452.826 158.323 451.391 156.709 449.669 155.446C447.947 154.183 445.976 153.298 443.888 152.85C441.8 152.403 439.64 152.402 437.551 152.849C434.432 150.954 430.804 149.68 427.168 150.004C423.532 150.328 419.937 152.488 418.577 155.874C417.217 159.26 418.678 163.727 422.058 165.103C424.226 165.986 426.673 165.558 428.986 165.202C431.298 164.846 433.822 164.614 435.834 165.807C437.847 167.001 438.752 170.2 436.949 171.693C435.994 172.515 435.311 173.609 434.993 174.828C434.675 176.048 434.736 177.336 435.168 178.52C436.074 180.864 438.547 182.748 440.388 182.786Z" fill="#2F2E41"/>
<path d="M457.99 260.566L460.506 356.076C460.515 356.394 460.457 356.711 460.338 357.006C460.218 357.301 460.039 357.568 459.811 357.79C459.583 358.013 459.312 358.186 459.014 358.298C458.716 358.411 458.398 358.461 458.08 358.445L449.79 358.022C449.261 357.995 448.757 357.787 448.363 357.433C447.969 357.079 447.708 356.6 447.625 356.077L437.763 294.042C437.721 293.777 437.587 293.535 437.385 293.357C437.184 293.179 436.926 293.078 436.658 293.069C436.389 293.061 436.126 293.146 435.914 293.311C435.701 293.476 435.553 293.71 435.494 293.972L422.148 353.7C422.077 354.02 421.939 354.32 421.743 354.583C421.547 354.845 421.297 355.062 421.011 355.22C420.724 355.379 420.408 355.474 420.082 355.501C419.755 355.528 419.427 355.485 419.119 355.376L410.891 354.873C410.415 354.704 410.007 354.383 409.731 353.96C409.454 353.537 409.324 353.036 409.36 352.532L416.542 259.665L457.99 260.566Z" fill="#2F2E41"/>
<path d="M462.029 215.202C463.416 200.729 452.776 187.637 438.272 186.608C432.023 186.164 422.322 186.005 419.124 194.197C409.49 218.871 426.355 218.271 420.545 239.649C414.734 261.026 409.602 262.251 417.575 263.795C425.548 265.338 461.4 274.451 459.928 259.405C459.022 250.155 460.645 229.639 462.029 215.202Z" fill="#0FEDA3"/>
<path d="M421.985 191.687C423.13 191.243 424.372 191.11 425.585 191.3C426.798 191.49 427.939 191.997 428.894 192.769C429.849 193.541 430.583 194.551 431.022 195.698C431.462 196.844 431.591 198.087 431.397 199.299L426.869 227.599C426.095 232.439 424.048 236.985 420.939 240.774L406.232 258.695C406.021 258.952 405.757 259.161 405.458 259.307C405.158 259.453 404.831 259.532 404.499 259.54C404.166 259.547 403.836 259.483 403.53 259.351C403.225 259.219 402.951 259.023 402.729 258.776L399.235 254.898C398.873 254.496 398.663 253.981 398.642 253.44C398.621 252.9 398.79 252.37 399.12 251.941L400.149 250.606C408.705 239.503 414.102 226.295 415.772 212.377L417.572 197.367C417.722 196.109 418.213 194.915 418.99 193.914C419.768 192.914 420.803 192.144 421.985 191.687Z" fill="#0FEDA3"/>
</svg>
