<svg width="564" height="494" viewBox="0 0 564 494" fill="none" xmlns="http://www.w3.org/2000/svg">
<path d="M307.546 33.6686C197.241 -18.2634 135.321 -9.34412 71.7145 55.0675C17.7697 124.31 4.88733 196.371 0.861713 230.59C0.861359 273.665 -8.63496 334.31 105.052 438.657C218.738 543.004 386.719 475.426 456.498 428.593C498.768 386.725 578.961 277.548 561.57 175.777C539.831 48.5639 417.851 85.6005 307.546 33.6686Z" fill="#AFEFDA" fill-opacity="0.7"/>
<g clip-path="url(#clip0_2416_2536)">
<path d="M391.773 406.414L391.081 415.649L376.999 411.032L382.769 404.106L391.773 406.414Z" fill="#FEB8B8"/>
<path d="M443.023 403.413L442.329 412.416L434.48 413.571L429.863 409.184L435.173 400.643L443.023 403.413Z" fill="#FEB8B8"/>
<path d="M448.792 288.448C448.792 288.448 455.025 295.835 447.176 307.147C439.326 318.459 429.862 329.54 429.862 329.54L412.315 362.783C412.315 362.783 403.311 395.334 401.234 396.257C399.156 397.18 398.002 393.487 399.156 397.411C400.31 401.335 399.618 401.105 398.694 401.336C397.771 401.568 395.232 401.106 396.155 402.722C397.078 404.338 397.771 404.338 395.924 404.338C394.077 404.338 393.385 403.184 393.385 404.8C393.385 406.415 391.769 410.109 391.769 410.109C391.769 410.109 380.457 406.877 379.995 405.492C379.534 404.107 382.996 403.414 382.304 402.029C381.611 400.644 381.38 400.644 381.38 398.567C381.38 396.489 382.766 396.027 382.766 396.027C382.766 396.027 383.92 395.566 383.458 394.642C382.997 393.718 381.15 394.18 383.458 393.026C385.767 391.871 395.235 356.55 395.235 356.55C395.235 356.55 395.235 339.003 398.236 333.233C401.237 327.463 398.929 286.37 406.087 285.908C413.246 285.446 448.792 288.448 448.792 288.448Z" fill="#2F2E41"/>
<path d="M446.484 301.606L445.099 337.389C445.099 337.389 452.024 372.017 449.716 382.636C447.407 393.255 449.023 391.87 447.638 393.717C446.253 395.564 445.099 394.64 446.253 396.256C447.407 397.872 448.097 398.334 446.253 400.182C444.408 402.03 443.482 406.415 443.482 406.415L431.709 405.261C431.709 405.261 434.71 399.952 433.553 398.797C432.397 397.643 429.398 399.49 431.709 396.953C434.02 394.416 435.403 395.567 434.017 394.413C432.632 393.259 430.555 393.721 432.401 391.874C434.248 390.027 436.327 390.029 434.479 389.335C432.631 388.64 430.553 389.334 431.478 387.949C432.403 386.564 433.556 384.948 433.556 384.948L430.786 363.94C430.786 363.94 427.554 357.015 428.477 354.014C429.4 351.013 424.552 326.311 424.552 326.311L446.484 301.606Z" fill="#2F2E41"/>
<path d="M441.408 408.03C441.408 408.03 443.717 405.721 444.409 407.107C445.101 408.492 450.179 420.958 447.179 421.881C444.179 422.805 439.792 423.726 437.483 423.035C435.175 422.345 430.327 419.11 424.556 419.11C418.785 419.11 413.937 416.57 413.937 415.647C413.937 414.724 413.014 409.183 417.399 409.183C421.785 409.183 429.865 404.104 429.865 404.104C429.865 404.104 431.71 400.41 432.635 400.642C433.561 400.873 432.866 408.26 432.866 408.26C432.866 408.26 438.175 413.341 441.408 408.03Z" fill="#2F2E41"/>
<path d="M390.157 411.031C390.157 411.031 392.235 405.952 394.313 407.105C396.391 408.258 395.005 422.571 395.005 422.571C395.005 422.571 393.161 425.572 387.849 424.88C382.537 424.188 368.457 422.571 365.225 423.264C361.993 423.956 353.221 420.032 355.529 414.722C355.529 414.722 356.683 411.721 362.224 411.952C367.765 412.183 377.922 405.49 377.922 405.49C377.922 405.49 379.538 400.873 380 401.335C380.462 401.796 380.923 409.876 380.923 409.876C380.923 409.876 386.926 413.801 390.157 411.031Z" fill="#2F2E41"/>
<path d="M420.399 198.184C427.794 198.184 433.789 192.189 433.789 184.794C433.789 177.399 427.794 171.405 420.399 171.405C413.005 171.405 407.01 177.399 407.01 184.794C407.01 192.189 413.005 198.184 420.399 198.184Z" fill="#FEB8B8"/>
<path d="M430.788 185.718C430.788 185.718 437.944 200.03 440.483 201.416C443.023 202.801 423.17 211.343 423.17 211.343C423.17 211.343 419.938 197.261 416.013 194.26C412.088 191.259 430.788 185.718 430.788 185.718Z" fill="#FEB8B8"/>
<path d="M410.242 302.762L409.318 311.534C409.318 311.534 399.392 308.072 402.624 301.608L410.242 302.762Z" fill="#FEB8B8"/>
<path d="M406.319 289.602C413.244 296.987 449.948 290.754 449.948 290.754L449.489 285.445L454.106 280.6L452.721 257.975C452.721 257.975 456.874 247.357 457.566 231.197C457.608 230.204 457.548 229.209 457.387 228.228C455.007 213.752 431.435 204.428 430.788 204.647C430.462 204.754 426.992 206.563 423.371 208.465C419.214 210.649 414.861 212.958 414.861 212.958C409.319 215.039 410.244 248.283 408.395 251.283C406.547 254.284 408.395 264.668 408.395 264.668L406.319 274.594C406.319 274.594 399.391 282.217 406.319 289.602Z" fill="#F0F0F0"/>
<path opacity="0.1" d="M428.692 216.315C428.692 216.315 435.156 235.706 433.771 248.865C432.385 262.024 417.38 299.653 417.38 299.653L412.304 302.424V308.887L408.731 299.211L418.555 278.671C418.555 278.671 406.297 207.773 428.692 216.315Z" fill="black"/>
<path opacity="0.1" d="M422.63 210.496C429.328 206.803 439.486 216.503 450.105 226.888C453.918 230.616 456.124 230.241 457.388 228.227C455.008 213.751 431.437 204.428 430.789 204.647C430.463 204.754 426.993 206.562 423.372 208.464L422.63 210.496Z" fill="black"/>
<path d="M422.633 208.712L425.403 201.094C425.403 201.094 444.333 192.09 456.799 201.094L458.877 214.021C458.877 214.021 460.722 235.491 450.104 225.102C439.487 214.714 429.327 205.018 422.633 208.712Z" fill="#F0F0F0"/>
<path d="M428.018 213.189C428.018 213.189 434.482 232.581 433.097 245.74C431.711 258.899 416.706 296.528 416.706 296.528L411.626 299.3V305.764L401.008 302.762L403.317 295.144C403.317 295.144 399.623 290.526 402.163 289.141C404.703 287.756 404.241 280.138 404.241 280.138C404.241 280.138 405.625 204.647 428.018 213.189Z" fill="#F0F0F0"/>
<path d="M432.336 190.399C432.118 189.365 432.147 188.251 431.651 187.317C430.907 185.917 429.197 185.331 427.617 185.193C425.6 185.017 423.568 185.366 421.548 185.228C419.528 185.09 417.37 184.32 416.364 182.563C415.963 181.862 415.766 181.037 415.234 180.429C414.126 179.164 412.108 179.36 410.517 179.902C408.926 180.444 407.266 181.236 405.64 180.812C404.272 176.985 405.956 172.571 408.869 169.737C411.782 166.904 415.711 165.379 419.613 164.242C424.759 162.743 430.551 161.857 435.282 164.376C442.143 168.028 444.565 177.694 443.932 184.898C443.692 187.621 443.301 190.705 441.1 192.543C437.873 195.238 433.31 195.007 432.336 190.399Z" fill="#2F2E41"/>
<path d="M348.325 92.1641H59.124V277.381H348.325V92.1641Z" fill="#E6E6E6"/>
<path d="M341.001 115.395H68.3394V266.424H341.001V115.395Z" fill="white"/>
<path d="M348.201 92H59V104.286H348.201V92Z" fill="#26D79C"/>
<path d="M68.1309 100.559C69.3886 100.559 70.4082 99.5392 70.4082 98.2815C70.4082 97.0237 69.3886 96.0042 68.1309 96.0042C66.8731 96.0042 65.8535 97.0237 65.8535 98.2815C65.8535 99.5392 66.8731 100.559 68.1309 100.559Z" fill="white"/>
<path d="M76.7739 100.559C78.0317 100.559 79.0513 99.5392 79.0513 98.2815C79.0513 97.0237 78.0317 96.0042 76.7739 96.0042C75.5162 96.0042 74.4966 97.0237 74.4966 98.2815C74.4966 99.5392 75.5162 100.559 76.7739 100.559Z" fill="white"/>
<path d="M85.4175 100.559C86.6752 100.559 87.6948 99.5392 87.6948 98.2815C87.6948 97.0237 86.6752 96.0042 85.4175 96.0042C84.1597 96.0042 83.1401 97.0237 83.1401 98.2815C83.1401 99.5392 84.1597 100.559 85.4175 100.559Z" fill="white"/>
<path d="M116.042 136.563L98.0063 154.374L116.042 172.184L120.1 168.126L106.462 154.487L120.214 140.735L116.042 136.563Z" fill="#26D79C"/>
<path d="M130.82 136.563L148.855 154.374L130.82 172.184L126.762 168.126L140.401 154.487L126.648 140.734L130.82 136.563Z" fill="#26D79C"/>
<path d="M189.158 141.033C187.682 141.033 186.487 141.881 186.487 142.928C186.487 143.974 187.682 144.822 189.158 144.822H315.068C316.543 144.822 317.739 143.974 317.739 142.928C317.739 141.881 316.543 141.033 315.068 141.033H189.158Z" fill="#E6E6E6"/>
<path d="M313.816 244.839H102.003C99.8381 244.839 98.0834 243.589 98.0811 242.049V204.665C98.0834 203.124 99.8381 201.874 102.003 201.874H313.816C315.982 201.874 317.736 203.124 317.739 204.665V242.048C317.736 243.589 315.981 244.837 313.816 244.839ZM102.003 202.989C100.704 202.989 99.6513 203.739 99.6499 204.664V242.047C99.6499 242.972 100.704 243.721 102.003 243.722H313.816C315.116 243.722 316.168 242.972 316.17 242.047V204.665C316.17 203.74 315.116 202.991 313.816 202.99L102.003 202.989Z" fill="#E6E6E6"/>
<path d="M123.815 232.817C129.049 232.817 133.292 228.574 133.292 223.341C133.292 218.107 129.049 213.864 123.815 213.864C118.582 213.864 114.339 218.107 114.339 223.341C114.339 228.574 118.582 232.817 123.815 232.817Z" fill="#E6E6E6"/>
<path d="M150.543 215.762C150.04 215.761 149.558 215.96 149.202 216.315C148.846 216.67 148.646 217.152 148.646 217.654C148.645 218.157 148.844 218.639 149.199 218.995C149.554 219.35 150.035 219.551 150.538 219.551H239.868C240.37 219.551 240.852 219.352 241.207 218.996C241.563 218.641 241.762 218.159 241.762 217.656C241.762 217.154 241.563 216.672 241.207 216.317C240.852 215.961 240.37 215.762 239.868 215.762H150.543Z" fill="#26D79C"/>
<path d="M150.543 227.13C150.04 227.13 149.558 227.329 149.202 227.684C148.846 228.039 148.646 228.52 148.646 229.023C148.645 229.525 148.844 230.007 149.199 230.363C149.554 230.719 150.035 230.919 150.538 230.92H188.979C189.228 230.92 189.474 230.871 189.704 230.776C189.934 230.682 190.143 230.542 190.319 230.367C190.495 230.191 190.635 229.982 190.731 229.752C190.826 229.523 190.875 229.276 190.876 229.027C190.876 228.779 190.827 228.532 190.732 228.302C190.638 228.072 190.498 227.863 190.322 227.687C190.147 227.511 189.938 227.371 189.708 227.276C189.479 227.18 189.232 227.131 188.983 227.13H150.543Z" fill="#26D79C"/>
<path d="M188.238 152.384C187.762 152.423 187.318 152.639 186.994 152.99C186.67 153.341 186.49 153.801 186.49 154.279C186.49 154.757 186.67 155.217 186.994 155.568C187.318 155.919 187.762 156.135 188.238 156.174H270.757C271.233 156.135 271.677 155.919 272.001 155.568C272.325 155.217 272.505 154.757 272.505 154.279C272.505 153.801 272.325 153.341 272.001 152.99C271.677 152.639 271.233 152.423 270.757 152.384H188.238Z" fill="#E6E6E6"/>
<path d="M188.781 163.735C187.514 163.735 186.487 164.584 186.487 165.63C186.487 166.676 187.514 167.525 188.781 167.525H296.949C298.216 167.525 299.243 166.676 299.243 165.63C299.243 164.584 298.216 163.735 296.949 163.735H188.781Z" fill="#E6E6E6"/>
</g>
<defs>
<clipPath id="clip0_2416_2536">
<rect width="400" height="332.983" fill="white" transform="translate(59 92)"/>
</clipPath>
</defs>
</svg>
