<svg width="534" height="340" viewBox="0 0 534 340" fill="none" xmlns="http://www.w3.org/2000/svg">
<g clip-path="url(#clip0_1039_1835)">
<mask id="path-1-inside-1_1039_1835" fill="white">
<rect x="200.594" width="332.9" height="248.608" rx="1.8"/>
</mask>
<rect x="200.594" width="332.9" height="248.608" rx="1.8" stroke="#E4E4E4" stroke-width="4" mask="url(#path-1-inside-1_1039_1835)"/>
<path d="M183.762 318.277L167.429 327.762L183.531 323.876C183.407 325.205 183.238 326.511 183.013 327.79C182.951 328.145 182.883 328.494 182.81 328.843C182.26 331.779 181.263 334.613 179.853 337.246C179.583 337.73 179.313 338.203 179.031 338.66C178.761 339.121 178.479 339.566 178.192 340H134.898C134.538 339.566 134.194 339.116 133.879 338.66C130.792 334.314 129.541 328.928 130.398 323.667C130.556 322.597 130.782 321.538 131.074 320.496C131.358 319.432 131.702 318.385 132.105 317.359C132.808 315.548 133.638 313.788 134.589 312.093C136.571 308.523 139.663 305.301 143.307 302.44C145.071 301.063 146.91 299.785 148.815 298.61C149.176 298.379 149.542 298.154 149.913 297.934C150.482 297.596 151.051 297.264 151.626 296.943C152.769 296.29 153.923 295.67 155.078 295.085C155.382 294.927 155.681 294.775 155.979 294.628C158.485 293.378 160.98 292.257 163.357 291.272C163.656 291.148 163.96 291.024 164.258 290.906C168.986 288.971 173.823 287.315 178.744 285.944C178.744 285.944 178.761 285.989 178.789 286.085C178.862 286.344 179.048 286.969 179.301 287.892C180.005 290.455 181.244 295.344 182.241 301.246C182.298 301.567 182.348 301.894 182.405 302.22C183.237 307.212 183.699 312.259 183.784 317.32C183.79 317.635 183.79 317.945 183.79 318.26L183.762 318.277Z" fill="#F2F2F2"/>
<path d="M179.938 285.369C179.932 285.386 179.876 285.662 179.746 286.169C179.639 286.591 179.493 287.172 179.301 287.892C178.642 290.41 177.471 294.628 175.804 299.708C175.708 300.001 175.607 300.305 175.505 300.61C174.345 304.085 172.965 307.926 171.371 311.874C170.971 312.865 170.572 313.839 170.16 314.791C170.036 315.09 169.913 315.382 169.783 315.67C168.037 319.713 166.24 323.414 164.393 326.77L163.926 327.61C161.779 331.504 159.293 335.201 156.497 338.66C156.12 339.121 155.737 339.566 155.348 340H154.042C154.436 339.566 154.83 339.116 155.213 338.66C158.169 335.082 160.785 331.235 163.025 327.17C163.182 326.894 163.34 326.618 163.492 326.337C165.48 322.727 167.288 318.953 168.904 315.213C169.034 314.926 169.158 314.633 169.282 314.335C171.394 309.39 173.168 304.529 174.598 300.249C174.7 299.945 174.801 299.641 174.897 299.342C176.981 293.023 178.287 288.067 178.789 286.085C178.856 285.792 178.913 285.561 178.952 285.403C178.991 285.257 179.008 285.172 179.014 285.155L179.47 285.262H179.476L179.938 285.369Z" fill="white"/>
<path d="M183.103 301.319C182.815 301.302 182.528 301.274 182.241 301.246C180.037 301.017 177.873 300.5 175.804 299.708C175.505 299.59 175.201 299.472 174.897 299.342C174.073 298.988 173.269 298.592 172.486 298.154C169.25 296.363 166.443 293.89 164.258 290.906C164.185 290.81 164.112 290.708 164.044 290.613C163.751 290.737 163.453 290.861 163.148 290.984C163.216 291.08 163.284 291.176 163.357 291.272C165.636 294.456 168.598 297.092 172.025 298.988C172.86 299.453 173.719 299.874 174.598 300.249C174.897 300.373 175.201 300.497 175.505 300.61C177.722 301.454 180.043 301.996 182.404 302.22C182.686 302.249 182.973 302.271 183.255 302.288C183.204 301.956 183.153 301.635 183.103 301.319Z" fill="white"/>
<path d="M183.787 317.32C179.1 317.748 174.385 316.873 170.164 314.791C169.865 314.65 169.572 314.498 169.285 314.335C169.194 314.293 169.105 314.246 169.02 314.194C165.446 312.207 162.397 309.395 160.129 305.992C157.862 302.588 156.44 298.692 155.982 294.628C155.971 294.533 155.96 294.431 155.948 294.335C155.644 294.493 155.34 294.645 155.042 294.803C155.053 294.899 155.064 294.989 155.081 295.084C155.601 299.234 157.093 303.203 159.435 306.668C161.776 310.133 164.902 312.997 168.558 315.028C168.671 315.089 168.789 315.157 168.908 315.213C169.2 315.371 169.493 315.523 169.786 315.67C174.121 317.796 178.955 318.698 183.765 318.277C184.018 318.255 184.272 318.227 184.525 318.198C184.525 317.877 184.531 317.562 184.531 317.241C184.28 317.269 184.032 317.297 183.787 317.32Z" fill="white"/>
<path d="M183.013 327.79C177.942 329.454 172.479 329.495 167.384 327.908C166.364 327.593 165.365 327.213 164.393 326.77C164.089 326.635 163.791 326.489 163.492 326.337C163.171 326.179 162.856 326.01 162.546 325.841C158.334 323.496 154.865 320.014 152.536 315.793C150.207 311.572 149.111 306.781 149.373 301.967C149.442 300.61 149.622 299.261 149.913 297.934C149.93 297.844 149.947 297.754 149.97 297.664C149.598 297.895 149.226 298.126 148.86 298.362C148.843 298.447 148.826 298.526 148.815 298.61C148.485 300.429 148.347 302.277 148.404 304.124C148.529 308.746 149.855 313.256 152.253 317.209C154.651 321.162 158.037 324.423 162.079 326.669C162.394 326.844 162.709 327.013 163.025 327.17C163.323 327.322 163.627 327.469 163.926 327.609C169.856 330.324 176.577 330.763 182.81 328.843C183.018 328.787 183.227 328.719 183.435 328.651C183.52 328.291 183.593 327.931 183.661 327.57C183.449 327.649 183.232 327.722 183.013 327.79Z" fill="white"/>
<path d="M144.321 138.841H112.781V170.38H144.321V138.841Z" fill="#9E616A"/>
<path d="M93.112 327.341H99.3264L102.282 303.373H93.1108L93.112 327.341Z" fill="#9E616A"/>
<path d="M110.168 334.343L100.83 327.894V323.687L99.7715 323.749L93.1145 324.149L91.0081 324.273L89.8085 338.657L89.769 339.135H94.1789L94.269 338.657L94.9674 334.973L96.7528 338.657L96.9837 339.135H108.676C109.237 339.136 109.783 338.957 110.235 338.625C110.687 338.293 111.021 337.825 111.188 337.289C111.355 336.753 111.346 336.178 111.162 335.648C110.979 335.118 110.63 334.661 110.168 334.343Z" fill="#2F2E41"/>
<path d="M129.454 323.396L135.424 325.113L144.89 302.896L136.076 300.362L129.454 323.396Z" fill="#9E616A"/>
<path d="M143.91 334.849L136.717 326.069L137.883 322.025L136.847 321.794L131.074 320.499L130.336 320.336L128.281 319.874L122.981 333.813L127.216 335.035L129.126 331.251L129.908 335.807L132.578 336.573L139.838 338.662L141.15 339.04C141.689 339.196 142.263 339.175 142.789 338.981C143.315 338.787 143.766 338.43 144.074 337.962C144.383 337.493 144.533 336.939 144.503 336.379C144.474 335.819 144.266 335.283 143.91 334.849Z" fill="#2F2E41"/>
<path d="M531.65 0H202.483C201.994 0.00149074 201.525 0.196775 201.18 0.543051C200.835 0.889326 200.641 1.35834 200.641 1.84731V12.689C200.641 13.1779 200.835 13.6469 201.18 13.9932C201.525 14.3395 201.994 14.5348 202.483 14.5363H531.652C532.141 14.5348 532.61 14.3395 532.955 13.9932C533.3 13.6469 533.494 13.1779 533.494 12.689V1.84731C533.494 1.35786 533.3 0.888418 532.954 0.542062C532.608 0.195706 532.139 0.00074611 531.65 0Z" fill="#E4E4E4"/>
<path d="M211.341 9.35648C212.787 9.35648 213.959 8.18446 213.959 6.73871C213.959 5.29296 212.787 4.12094 211.341 4.12094C209.896 4.12094 208.724 5.29296 208.724 6.73871C208.724 8.18446 209.896 9.35648 211.341 9.35648Z" fill="white"/>
<path d="M221.277 9.35648C222.723 9.35648 223.895 8.18446 223.895 6.73871C223.895 5.29296 222.723 4.12094 221.277 4.12094C219.831 4.12094 218.659 5.29296 218.659 6.73871C218.659 8.18446 219.831 9.35648 221.277 9.35648Z" fill="white"/>
<path d="M231.213 9.35648C232.659 9.35648 233.831 8.18446 233.831 6.73871C233.831 5.29296 232.659 4.12094 231.213 4.12094C229.768 4.12094 228.596 5.29296 228.596 6.73871C228.596 8.18446 229.768 9.35648 231.213 9.35648Z" fill="white"/>
<path d="M521.912 3.24405H510.473C510.248 3.24405 510.033 3.33336 509.874 3.49232C509.715 3.65127 509.625 3.86687 509.625 4.09167C509.625 4.31647 509.715 4.53207 509.874 4.69103C510.033 4.84999 510.248 4.93929 510.473 4.93929H521.912C522.137 4.93929 522.352 4.84999 522.511 4.69103C522.67 4.53207 522.759 4.31647 522.759 4.09167C522.759 3.86687 522.67 3.65127 522.511 3.49232C522.352 3.33336 522.137 3.24405 521.912 3.24405Z" fill="white"/>
<path d="M521.912 6.4205H510.473C510.248 6.4205 510.033 6.50981 509.874 6.66877C509.715 6.82773 509.625 7.04332 509.625 7.26813C509.625 7.49293 509.715 7.70852 509.874 7.86748C510.033 8.02644 510.248 8.11575 510.473 8.11575H521.912C522.137 8.11575 522.352 8.02644 522.511 7.86748C522.67 7.70852 522.759 7.49293 522.759 7.26813C522.759 7.04332 522.67 6.82773 522.511 6.66877C522.352 6.50981 522.137 6.4205 521.912 6.4205Z" fill="white"/>
<path d="M521.912 9.59979H510.473C510.248 9.59979 510.033 9.6891 509.874 9.84806C509.715 10.007 509.625 10.2226 509.625 10.4474C509.625 10.6722 509.715 10.8878 509.874 11.0468C510.033 11.2057 510.248 11.295 510.473 11.295H521.912C522.137 11.295 522.352 11.2057 522.511 11.0468C522.67 10.8878 522.759 10.6722 522.759 10.4474C522.759 10.2226 522.67 10.007 522.511 9.84806C522.352 9.6891 522.137 9.59979 521.912 9.59979Z" fill="white"/>
<path d="M520.611 45.8954H435.328C434.733 45.8969 434.164 46.1335 433.744 46.5536C433.324 46.9736 433.087 47.5429 433.086 48.1369V82.7458C433.087 83.3398 433.324 83.9091 433.744 84.3291C434.164 84.7492 434.733 84.9858 435.328 84.9873H520.613C521.208 84.9867 521.777 84.7504 522.198 84.3301C522.618 83.9099 522.854 83.3401 522.855 82.7458V48.1369C522.854 47.5421 522.618 46.9719 522.197 46.5516C521.776 46.1313 521.205 45.8952 520.611 45.8954Z" fill="#E4E4E4"/>
<path d="M512.489 96.2063H443.449C442.736 96.2063 442.052 96.4897 441.547 96.994C441.043 97.4984 440.76 98.1824 440.76 98.8956C440.76 99.6089 441.043 100.293 441.547 100.797C442.052 101.302 442.736 101.585 443.449 101.585H512.489C515.998 101.636 515.964 96.1557 512.489 96.2063Z" fill="#E4E4E4"/>
<path d="M512.489 108.535H443.449C442.736 108.535 442.052 108.818 441.547 109.323C441.043 109.827 440.76 110.511 440.76 111.224C440.76 111.937 441.043 112.621 441.547 113.126C442.052 113.63 442.736 113.913 443.449 113.913H512.489C515.998 113.964 515.964 108.484 512.489 108.535Z" fill="#E4E4E4"/>
<path d="M512.489 120.863H443.449C442.736 120.863 442.052 121.147 441.547 121.651C441.043 122.155 440.76 122.839 440.76 123.553C440.76 124.266 441.043 124.95 441.547 125.454C442.052 125.959 442.736 126.242 443.449 126.242H512.489C515.998 126.293 515.964 120.813 512.489 120.863Z" fill="#E4E4E4"/>
<path d="M408.536 45.8954H323.25C322.656 45.8969 322.087 46.1335 321.667 46.5536C321.247 46.9736 321.01 47.5429 321.009 48.1369V82.7458C321.01 83.3398 321.247 83.9091 321.667 84.3291C322.087 84.7492 322.656 84.9858 323.25 84.9873H408.536C409.131 84.9867 409.7 84.7504 410.121 84.3301C410.541 83.9099 410.777 83.3401 410.778 82.7458V48.1369C410.777 47.5426 410.541 46.9728 410.121 46.5526C409.7 46.1323 409.131 45.896 408.536 45.8954Z" fill="#E4E4E4"/>
<path d="M400.415 96.2063H331.372C330.659 96.2063 329.975 96.4897 329.47 96.994C328.966 97.4984 328.683 98.1824 328.683 98.8956C328.683 99.6089 328.966 100.293 329.47 100.797C329.975 101.302 330.659 101.585 331.372 101.585H400.415C403.918 101.636 403.884 96.1557 400.415 96.2063Z" fill="#E4E4E4"/>
<path d="M400.415 108.535H331.372C330.659 108.535 329.975 108.818 329.47 109.323C328.966 109.827 328.683 110.511 328.683 111.224C328.683 111.937 328.966 112.621 329.47 113.126C329.975 113.63 330.659 113.913 331.372 113.913H400.415C403.918 113.964 403.884 108.484 400.415 108.535Z" fill="#E4E4E4"/>
<path d="M400.415 120.863H331.372C330.659 120.863 329.975 121.147 329.47 121.651C328.966 122.155 328.683 122.839 328.683 123.553C328.683 124.266 328.966 124.95 329.47 125.454C329.975 125.959 330.659 126.242 331.372 126.242H400.415C403.918 126.293 403.884 120.813 400.415 120.863Z" fill="#E4E4E4"/>
<path d="M194.681 111.349C194.572 111.669 194.493 111.999 194.443 112.333L159.524 106.16L129.445 89.9401C127.553 88.9174 125.343 88.6508 123.262 89.1941C121.18 89.7374 119.383 91.0501 118.232 92.8672C117.081 94.6843 116.662 96.8704 117.06 98.9842C117.459 101.098 118.644 102.982 120.377 104.256C125.988 108.386 132.208 111.617 138.814 113.83L160.621 121.135L198.818 118.687C199.88 118.916 200.984 118.834 202 118.45C203.015 118.066 203.898 117.397 204.542 116.523C205.186 115.649 205.564 114.607 205.63 113.524C205.696 112.44 205.447 111.361 204.914 110.415C204.381 109.469 203.585 108.698 202.624 108.194C201.663 107.69 200.576 107.474 199.495 107.573C198.414 107.672 197.384 108.081 196.53 108.752C195.677 109.422 195.035 110.325 194.682 111.351L194.681 111.349Z" fill="#9E616A"/>
<path d="M280.576 111.458H171.867C171.108 111.459 170.381 111.761 169.845 112.297C169.309 112.833 169.007 113.56 169.006 114.319V158.423C169.007 159.182 169.309 159.909 169.845 160.445C170.381 160.982 171.108 161.283 171.867 161.284H280.576C281.334 161.282 282.06 160.98 282.595 160.444C283.13 159.907 283.431 159.181 283.432 158.423V114.319C283.431 113.561 283.13 112.835 282.595 112.299C282.06 111.762 281.334 111.46 280.576 111.458Z" fill="#0FEDA3"/>
<path d="M270.225 175.584H182.218C181.309 175.584 180.436 175.946 179.793 176.589C179.15 177.232 178.789 178.104 178.789 179.014C178.789 179.924 179.15 180.796 179.793 181.439C180.436 182.083 181.309 182.444 182.218 182.444H270.225C274.688 182.503 274.646 175.519 270.225 175.584Z" fill="#0FEDA3"/>
<path d="M270.225 191.298H182.218C181.309 191.298 180.436 191.659 179.793 192.302C179.15 192.945 178.789 193.818 178.789 194.727C178.789 195.637 179.15 196.509 179.793 197.153C180.436 197.796 181.309 198.157 182.218 198.157H270.225C274.688 198.219 274.646 191.233 270.225 191.298Z" fill="#0FEDA3"/>
<rect x="179.254" y="133.373" width="42.6795" height="6.40193" rx="3.20097" fill="white"/>
<rect x="179.254" y="121.637" width="64.0193" height="6.40193" rx="3.20097" fill="white"/>
<rect x="179.254" y="145.11" width="53.3494" height="6.40193" rx="3.20097" fill="white"/>
<path d="M270.225 207.017H182.219C181.769 207.017 181.323 207.105 180.907 207.277C180.491 207.45 180.114 207.702 179.795 208.02C179.477 208.339 179.225 208.716 179.052 209.132C178.88 209.548 178.792 209.994 178.792 210.444C178.792 210.894 178.88 211.339 179.052 211.755C179.225 212.171 179.477 212.549 179.795 212.867C180.114 213.185 180.491 213.438 180.907 213.61C181.323 213.782 181.769 213.871 182.219 213.871H270.225C274.688 213.933 274.646 206.955 270.225 207.017Z" fill="#0FEDA3"/>
<path d="M144.949 74.2857C149.384 66.1717 146.402 55.9984 138.288 51.5629C130.174 47.1275 120.001 50.1095 115.565 58.2234C111.13 66.3374 114.112 76.5108 122.226 80.9462C130.34 85.3817 140.513 82.3997 144.949 74.2857Z" fill="#9E616A"/>
<path d="M133.057 45.9123H122.243C115.152 45.9123 109.402 52.379 109.402 60.3562C104.052 65.7286 105.657 72.4589 109.903 79.7045C117.564 80.6576 125.058 82.662 132.172 85.6609L133.182 81.3501L135.173 87.0278C136.944 87.8858 138.7 88.8244 140.441 89.8438C138.409 80.297 137.573 70.7721 138.968 63.3733H142.629V59.3644L143.872 63.3733H150.514C150.514 58.7428 148.674 54.3019 145.4 51.0277C142.126 47.7534 137.685 45.914 133.054 45.914L133.057 45.9123Z" fill="#2F2E41"/>
<path d="M131.93 87.5893L111.68 86.7113L111.136 88.7805C106.655 105.802 105.963 123.598 109.108 140.916C109.71 141.482 110.149 142.199 110.381 142.992C110.613 143.784 110.63 144.625 110.429 145.426L110.138 146.585L110.165 146.628C111.118 148.134 111.442 149.954 111.066 151.696L112.08 157.272L144.884 142.78L152.205 117.436L131.93 87.5893Z" fill="#CACACA"/>
<path d="M182.115 141.006C181.888 141.256 181.684 141.526 181.505 141.813L151.937 122.238L130.809 95.3756C129.48 93.686 127.56 92.5632 125.435 92.2337C123.311 91.9041 121.141 92.3923 119.362 93.5998C117.584 94.8073 116.33 96.6443 115.852 98.7402C115.375 100.836 115.71 103.035 116.79 104.894C120.291 110.917 124.71 116.358 129.889 121.02L146.979 136.408L182.989 149.382C183.871 150.015 184.917 150.38 186.001 150.432C187.086 150.484 188.162 150.222 189.101 149.677C190.04 149.132 190.801 148.328 191.293 147.36C191.785 146.392 191.988 145.303 191.875 144.223C191.763 143.144 191.341 142.119 190.66 141.274C189.979 140.428 189.068 139.798 188.037 139.458C187.006 139.118 185.899 139.083 184.849 139.358C183.798 139.632 182.85 140.205 182.117 141.006H182.115Z" fill="#9E616A"/>
<path d="M257.089 81.654C253.889 81.654 250.76 80.7049 248.098 78.9266C245.437 77.1483 243.363 74.6208 242.138 71.6636C240.913 68.7064 240.592 65.4524 241.217 62.3131C241.841 59.1738 243.383 56.2901 245.646 54.0268C247.909 51.7635 250.793 50.2222 253.932 49.5977C257.071 48.9733 260.325 49.2938 263.283 50.5187C266.24 51.7436 268.767 53.8179 270.546 56.4792C272.324 59.1406 273.273 62.2696 273.273 65.4704C273.273 69.7626 271.568 73.8789 268.533 76.9139C265.498 79.949 261.382 81.654 257.089 81.654Z" fill="#E4E4E4"/>
<path d="M263.476 63.8739H258.689V59.0867C258.693 58.8745 258.654 58.6637 258.576 58.4665C258.497 58.2694 258.381 58.0898 258.232 57.9383C258.083 57.7869 257.906 57.6666 257.71 57.5844C257.515 57.5023 257.305 57.46 257.092 57.46C256.88 57.46 256.67 57.5023 256.474 57.5844C256.279 57.6666 256.101 57.7869 255.953 57.9383C255.804 58.0898 255.687 58.2694 255.609 58.4665C255.53 58.6637 255.492 58.8745 255.496 59.0867V63.8739H250.709C250.497 63.8699 250.286 63.9083 250.089 63.9867C249.891 64.0652 249.712 64.1821 249.56 64.3307C249.409 64.4794 249.289 64.6567 249.206 64.8524C249.124 65.048 249.082 65.2581 249.082 65.4703C249.082 65.6825 249.124 65.8926 249.206 66.0883C249.289 66.2839 249.409 66.4613 249.56 66.6099C249.712 66.7585 249.891 66.8755 250.089 66.9539C250.286 67.0324 250.497 67.0707 250.709 67.0667H255.496V71.8539C255.504 72.2721 255.675 72.6706 255.974 72.9635C256.272 73.2565 256.674 73.4206 257.092 73.4206C257.511 73.4206 257.912 73.2565 258.211 72.9635C258.509 72.6706 258.681 72.2721 258.689 71.8539V67.0667H263.476C263.688 67.0707 263.899 67.0324 264.096 66.9539C264.293 66.8755 264.473 66.7585 264.624 66.6099C264.776 66.4613 264.896 66.2839 264.978 66.0883C265.06 65.8926 265.103 65.6825 265.103 65.4703C265.103 65.2581 265.06 65.048 264.978 64.8524C264.896 64.6567 264.776 64.4794 264.624 64.3307C264.473 64.1821 264.293 64.0652 264.096 63.9867C263.899 63.9083 263.688 63.8699 263.476 63.8739Z" fill="white"/>
<path d="M165.716 265.527C166.242 264.14 166.436 262.649 166.283 261.174C166.129 259.698 165.632 258.279 164.832 257.03L150.516 182.771L144.884 154.61H111.092C111.092 154.61 89.9715 177.983 94.4771 207.833L93.2161 249.871C92.0206 252.754 91.726 255.932 92.3713 258.987L92.8731 261.365L92.6794 261.723C91.7574 263.429 91.262 265.333 91.2356 267.272C91.2092 269.211 91.6526 271.128 92.5279 272.858L91.0996 320.474L101.237 319.911L116.162 264.435L126.018 214.592L142.633 253.171L143.196 262.182L142.923 270.123L129.961 316.531L140.943 320.755L165.716 265.527Z" fill="#2F2E41"/>
<path d="M247.629 339.33C247.629 339.507 247.558 339.678 247.432 339.803C247.307 339.929 247.136 340 246.959 340H0.670213C0.492462 340 0.321989 339.929 0.196299 339.804C0.0706104 339.678 0 339.508 0 339.33C0 339.152 0.0706104 338.982 0.196299 338.856C0.321989 338.73 0.492462 338.66 0.670213 338.66H246.959C247.047 338.659 247.134 338.677 247.216 338.71C247.297 338.744 247.371 338.793 247.433 338.855C247.496 338.918 247.545 338.992 247.579 339.073C247.612 339.154 247.629 339.242 247.629 339.33Z" fill="#CACACA"/>
<rect x="328.632" y="53.3494" width="35.2106" height="5.33494" rx="2.66747" fill="white"/>
<rect x="328.632" y="53.3494" width="35.2106" height="5.33494" rx="2.66747" fill="white"/>
<rect x="440.666" y="62.9523" width="35.2106" height="5.33493" rx="2.66747" fill="white"/>
<rect x="440.666" y="53.3494" width="42.6795" height="5.33494" rx="2.66747" fill="white"/>
<rect x="440.666" y="72.5552" width="37.3446" height="5.33495" rx="2.66747" fill="white"/>
<rect x="328.632" y="62.9523" width="53.3494" height="5.33493" rx="2.66747" fill="white"/>
<rect x="328.632" y="72.5552" width="42.6795" height="5.33495" rx="2.66747" fill="white"/>
</g>
<defs>
<clipPath id="clip0_1039_1835">
<rect width="533.494" height="340" fill="white"/>
</clipPath>
</defs>
</svg>
