<svg width="40" height="40" viewBox="0 0 40 40" fill="none" xmlns="http://www.w3.org/2000/svg">
<circle cx="20" cy="20" r="19" fill="white" stroke="#26D79C" stroke-width="2"/>
<g clip-path="url(#clip0_1041_2109)">
<path d="M28.2907 25.4569H11.9246C11.7262 25.4588 11.5325 25.3964 11.3726 25.2789C11.2127 25.1614 11.0952 24.9952 11.0378 24.8053C10.9818 24.619 10.9882 24.4195 11.056 24.2372C11.1239 24.0549 11.2494 23.8998 11.4136 23.7954C11.8981 23.3735 12.2891 22.8551 12.5616 22.2734C13.4212 20.4262 13.8262 18.4002 13.743 16.3646C13.743 14.6766 14.4136 13.0577 15.6072 11.8641C16.8008 10.6706 18.4196 10 20.1076 10C21.7956 10 23.4145 10.6706 24.6081 11.8641C25.8017 13.0577 26.4722 14.6766 26.4722 16.3646C26.3891 18.4 26.7942 20.4258 27.6536 22.2728C27.9262 22.8545 28.3172 23.3729 28.8017 23.7948C28.9658 23.8992 29.0914 24.0543 29.1592 24.2366C29.2271 24.4189 29.2335 24.6184 29.1775 24.8047C29.1202 24.9947 29.0027 25.161 28.8428 25.2786C28.6829 25.3962 28.4892 25.4588 28.2907 25.4569ZM13.8788 23.6384H26.3365C26.2674 23.5249 26.1981 23.4049 26.1285 23.2784C25.0708 21.1319 24.564 18.7559 24.6538 16.3646C24.6538 15.1589 24.1748 14.0026 23.3222 13.15C22.4697 12.2974 21.3133 11.8185 20.1076 11.8185C18.9019 11.8185 17.7456 12.2974 16.893 13.15C16.0405 14.0026 15.5615 15.1589 15.5615 16.3646C15.6513 18.7559 15.1445 21.1319 14.0867 23.2784C14.0192 23.4053 13.9499 23.5253 13.8788 23.6384Z" fill="#26D79C"/>
<path d="M28.2907 25.4569H11.9246C11.7262 25.4588 11.5325 25.3964 11.3726 25.2789C11.2127 25.1614 11.0952 24.9952 11.0378 24.8053C10.9818 24.619 10.9882 24.4195 11.056 24.2372C11.1239 24.0549 11.2494 23.8998 11.4136 23.7954C11.8981 23.3735 12.2891 22.8551 12.5616 22.2734C13.4212 20.4262 13.8262 18.4002 13.743 16.3646C13.743 14.6766 14.4136 13.0577 15.6072 11.8641C16.8008 10.6706 18.4196 10 20.1076 10C21.7956 10 23.4145 10.6706 24.6081 11.8641C25.8017 13.0577 26.4722 14.6766 26.4722 16.3646C26.3891 18.4 26.7942 20.4258 27.6536 22.2728C27.9262 22.8545 28.3172 23.3729 28.8017 23.7948C28.9658 23.8992 29.0914 24.0543 29.1592 24.2366C29.2271 24.4189 29.2335 24.6184 29.1775 24.8047C29.1202 24.9947 29.0027 25.161 28.8428 25.2786C28.6829 25.3962 28.4892 25.4588 28.2907 25.4569ZM13.8788 23.6384H26.3365C26.2674 23.5249 26.1981 23.4049 26.1285 23.2784C25.0708 21.1319 24.564 18.7559 24.6538 16.3646C24.6538 15.1589 24.1748 14.0026 23.3222 13.15C22.4697 12.2974 21.3133 11.8185 20.1076 11.8185C18.9019 11.8185 17.7456 12.2974 16.893 13.15C16.0405 14.0026 15.5615 15.1589 15.5615 16.3646C15.6513 18.7559 15.1445 21.1319 14.0867 23.2784C14.0192 23.4053 13.9499 23.5253 13.8788 23.6384Z" fill="#26D79C"/>
<path d="M20.1062 30.001C19.6286 30 19.1595 29.8741 18.7456 29.6357C18.3317 29.3973 17.9875 29.0547 17.7471 28.642C17.6815 28.5386 17.6375 28.4231 17.6177 28.3024C17.5979 28.1816 17.6027 28.0581 17.6317 27.9392C17.6608 27.8204 17.7135 27.7086 17.7868 27.6106C17.8601 27.5126 17.9524 27.4304 18.0582 27.3689C18.164 27.3074 18.2811 27.268 18.4025 27.2528C18.5239 27.2377 18.6472 27.2472 18.7648 27.2809C18.8825 27.3145 18.9921 27.3715 19.0872 27.4485C19.1823 27.5256 19.2609 27.621 19.3182 27.7291C19.3979 27.8676 19.5127 27.9826 19.6511 28.0626C19.7894 28.1426 19.9464 28.1847 20.1062 28.1847C20.266 28.1847 20.423 28.1426 20.5613 28.0626C20.6997 27.9826 20.8145 27.8676 20.8942 27.7291C20.9534 27.6245 21.0328 27.5327 21.1277 27.459C21.2227 27.3853 21.3313 27.3311 21.4473 27.2996C21.5632 27.2682 21.6843 27.26 21.8035 27.2756C21.9227 27.2912 22.0376 27.3303 22.1415 27.3906C22.2455 27.4509 22.3365 27.5312 22.4092 27.6269C22.4819 27.7226 22.535 27.8317 22.5653 27.9481C22.5956 28.0644 22.6025 28.1855 22.5856 28.3045C22.5688 28.4235 22.5285 28.538 22.4672 28.6414C22.2267 29.0545 21.8822 29.3974 21.4679 29.6359C21.0537 29.8744 20.5842 30.0003 20.1062 30.001Z" fill="#26D79C"/>
</g>
<defs>
<clipPath id="clip0_1041_2109">
<rect width="18.2119" height="20" fill="white" transform="translate(11 10)"/>
</clipPath>
</defs>
</svg>
