<svg width="165" height="71" viewBox="0 0 165 71" fill="none" xmlns="http://www.w3.org/2000/svg">
<circle cx="35.0018" cy="35.0022" r="24.75" transform="rotate(-45 35.0018 35.0022)" fill="url(#paint0_linear_1391_3804)"/>
<rect x="25.8296" y="49.1643" width="5.5" height="33" rx="2.75" transform="rotate(-135 25.8296 49.1643)" fill="white"/>
<path fill-rule="evenodd" clip-rule="evenodd" d="M48.7112 48.5168C50.8591 46.3689 50.8591 42.8865 48.7112 40.7386C46.5633 38.5907 43.0809 38.5907 40.933 40.7386C38.7851 42.8865 38.7851 46.3689 40.933 48.5168C43.0809 50.6647 46.5633 50.6647 48.7112 48.5168ZM47.9334 47.739C46.2151 49.4573 43.4292 49.4573 41.7108 47.739C39.9925 46.0206 39.9925 43.2347 41.7108 41.5164C43.4292 39.7981 46.2151 39.7981 47.9334 41.5164C49.6517 43.2347 49.6517 46.0206 47.9334 47.739ZM46.7667 46.5722C47.8406 45.4983 47.8406 43.7571 46.7667 42.6831C45.6928 41.6092 43.9516 41.6092 42.8776 42.6831C41.8037 43.7571 41.8037 45.4983 42.8776 46.5722C43.9516 47.6462 45.6928 47.6462 46.7667 46.5722Z" fill="white"/>
<path d="M30.5618 22.5892C32.7097 24.7371 32.7097 28.2195 30.5618 30.3674C28.4139 32.5152 24.9315 32.5152 22.7836 30.3674C20.6357 28.2195 20.6357 24.7371 22.7836 22.5892C24.9315 20.4413 28.4139 20.4413 30.5618 22.5892ZM23.9503 29.2006C25.4539 30.7042 27.8915 30.7042 29.3951 29.2006C30.8986 27.6971 30.8986 25.2594 29.3951 23.7559C27.8915 22.2524 25.4539 22.2524 23.9503 23.7559C22.4468 25.2594 22.4468 27.6971 23.9503 29.2006Z" fill="white"/>
<path d="M77.8432 21.0707C80.2143 21.0707 82.1698 21.3641 83.7098 21.9507C85.2498 22.513 86.3987 23.3807 87.1565 24.5541C87.9143 25.703 88.2932 27.1574 88.2932 28.9174C88.2932 30.1152 88.0609 31.1663 87.5965 32.0707C87.1565 32.9507 86.5576 33.7085 85.7998 34.3441C85.0665 34.9552 84.2721 35.4563 83.4165 35.8474L91.1165 47.2507H84.9565L78.7232 37.2041H75.7532V47.2507H70.2165V21.0707H77.8432ZM77.4398 25.6174H75.7532V32.6941H77.5498C78.7721 32.6941 79.7621 32.5596 80.5198 32.2907C81.2776 32.0218 81.8276 31.6185 82.1698 31.0807C82.5121 30.5185 82.6832 29.8463 82.6832 29.0641C82.6832 28.233 82.4876 27.573 82.0965 27.0841C81.7298 26.5707 81.1554 26.2041 80.3732 25.9841C79.6154 25.7396 78.6376 25.6174 77.4398 25.6174ZM102.196 26.8274C104.884 26.8274 106.938 27.4141 108.356 28.5874C109.798 29.7363 110.519 31.5085 110.519 33.9041V47.2507H106.706L105.642 44.5374H105.496C104.933 45.2463 104.347 45.833 103.736 46.2974C103.149 46.7618 102.464 47.0918 101.682 47.2874C100.924 47.5074 99.9833 47.6174 98.8589 47.6174C97.6856 47.6174 96.6222 47.3974 95.6689 46.9574C94.74 46.493 94.0067 45.7963 93.4689 44.8674C92.9311 43.9141 92.6622 42.7163 92.6622 41.2741C92.6622 39.1474 93.4078 37.583 94.8989 36.5807C96.39 35.5541 98.6267 34.9918 101.609 34.8941L105.092 34.7841V33.9041C105.092 32.853 104.811 32.083 104.249 31.5941C103.711 31.1052 102.953 30.8607 101.976 30.8607C100.998 30.8607 100.044 31.0074 99.1156 31.3007C98.1867 31.5696 97.2578 31.9118 96.3289 32.3274L94.5322 28.6241C95.6078 28.0618 96.7933 27.6218 98.0889 27.3041C99.4089 26.9863 100.778 26.8274 102.196 26.8274ZM102.966 38.0474C101.206 38.0963 99.9833 38.4141 99.2989 39.0007C98.6145 39.5874 98.2722 40.3574 98.2722 41.3107C98.2722 42.1418 98.5167 42.7407 99.0056 43.1074C99.4945 43.4496 100.13 43.6207 100.912 43.6207C102.086 43.6207 103.076 43.2785 103.882 42.5941C104.689 41.8852 105.092 40.8952 105.092 39.6241V37.9741L102.966 38.0474ZM121.574 27.2307V47.2507H116.111V27.2307H121.574ZM118.861 19.3841C119.668 19.3841 120.364 19.5796 120.951 19.9707C121.538 20.3374 121.831 21.0341 121.831 22.0607C121.831 23.063 121.538 23.7596 120.951 24.1507C120.364 24.5418 119.668 24.7374 118.861 24.7374C118.03 24.7374 117.321 24.5418 116.734 24.1507C116.172 23.7596 115.891 23.063 115.891 22.0607C115.891 21.0341 116.172 20.3374 116.734 19.9707C117.321 19.5796 118.03 19.3841 118.861 19.3841ZM141.253 41.3107C141.253 42.6552 140.935 43.8041 140.3 44.7574C139.664 45.6863 138.711 46.3952 137.44 46.8841C136.169 47.373 134.592 47.6174 132.71 47.6174C131.316 47.6174 130.119 47.5196 129.116 47.3241C128.114 47.153 127.112 46.8596 126.11 46.4441V41.9341C127.185 42.423 128.346 42.8263 129.593 43.1441C130.84 43.4618 131.94 43.6207 132.893 43.6207C133.969 43.6207 134.726 43.4618 135.166 43.1441C135.631 42.8263 135.863 42.4107 135.863 41.8974C135.863 41.5552 135.765 41.2496 135.57 40.9807C135.399 40.7118 135.007 40.4063 134.396 40.0641C133.785 39.7218 132.832 39.2818 131.536 38.7441C130.29 38.2063 129.263 37.6807 128.456 37.1674C127.65 36.6296 127.051 35.9941 126.66 35.2607C126.269 34.503 126.073 33.5618 126.073 32.4374C126.073 30.5796 126.794 29.1863 128.236 28.2574C129.679 27.3285 131.597 26.8641 133.993 26.8641C135.24 26.8641 136.425 26.9863 137.55 27.2307C138.674 27.4752 139.835 27.8785 141.033 28.4407L139.383 32.3641C138.723 32.0707 138.087 31.8141 137.476 31.5941C136.865 31.3741 136.266 31.203 135.68 31.0807C135.117 30.9585 134.531 30.8974 133.92 30.8974C133.113 30.8974 132.502 31.0074 132.086 31.2274C131.695 31.4474 131.5 31.7774 131.5 32.2174C131.5 32.5352 131.597 32.8285 131.793 33.0974C132.013 33.3418 132.416 33.6107 133.003 33.9041C133.614 34.1974 134.506 34.5885 135.68 35.0774C136.829 35.5418 137.819 36.0307 138.65 36.5441C139.481 37.033 140.116 37.6563 140.556 38.4141C141.021 39.1474 141.253 40.113 141.253 41.3107ZM153.759 26.8641C155.617 26.8641 157.206 27.2185 158.526 27.9274C159.87 28.6363 160.909 29.663 161.642 31.0074C162.376 32.3518 162.742 34.0018 162.742 35.9574V38.5974H149.836C149.884 40.1374 150.337 41.3474 151.192 42.2274C152.072 43.1074 153.282 43.5474 154.822 43.5474C156.118 43.5474 157.291 43.4252 158.342 43.1807C159.393 42.9118 160.481 42.5085 161.606 41.9707V46.1874C160.628 46.6763 159.589 47.0307 158.489 47.2507C157.413 47.4952 156.106 47.6174 154.566 47.6174C152.561 47.6174 150.789 47.2507 149.249 46.5174C147.709 45.7596 146.499 44.623 145.619 43.1074C144.739 41.5918 144.299 39.6852 144.299 37.3874C144.299 35.0407 144.69 33.0974 145.472 31.5574C146.279 29.993 147.391 28.8196 148.809 28.0374C150.227 27.2552 151.877 26.8641 153.759 26.8641ZM153.796 30.7507C152.744 30.7507 151.864 31.093 151.156 31.7774C150.471 32.4618 150.068 33.5252 149.946 34.9674H157.609C157.609 34.1607 157.462 33.4396 157.169 32.8041C156.9 32.1685 156.484 31.6674 155.922 31.3007C155.36 30.9341 154.651 30.7507 153.796 30.7507Z" fill="#242424"/>
<defs>
<linearGradient id="paint0_linear_1391_3804" x1="35.0018" y1="10.2522" x2="35.0018" y2="59.7522" gradientUnits="userSpaceOnUse">
<stop stop-color="#37FFE6"/>
<stop offset="1" stop-color="#2BFFA9"/>
</linearGradient>
</defs>
</svg>
